<?xml version="1.0" standalone="no"?>
<!DOCTYPE svg PUBLIC "-//W3C//DTD SVG 20010904//EN"
 "http://www.w3.org/TR/2001/REC-SVG-20010904/DTD/svg10.dtd">
<svg version="1.0" xmlns="http://www.w3.org/2000/svg"
 width="100.000000pt" height="100.000000pt" viewBox="0 0 100.000000 100.000000"
 preserveAspectRatio="xMidYMid meet">

<g transform="translate(0.000000,100.000000) scale(0.100000,-0.100000)"
fill="#000000" stroke="none">
<path d="M161 983 c-59 -21 -124 -87 -144 -148 -14 -41 -17 -94 -17 -334 0
-166 4 -302 10 -323 17 -59 69 -120 129 -151 l55 -27 305 0 c301 0 307 1 356
24 60 28 97 66 124 126 19 42 21 65 21 350 0 285 -2 308 -21 350 -25 55 -62
95 -114 123 -38 21 -53 22 -350 24 -261 2 -317 -1 -354 -14z m436 -330 c2 -6
-28 -44 -67 -84 l-71 -72 72 -73 c65 -66 72 -76 58 -89 -13 -13 -25 -5 -104
75 l-90 90 85 85 c80 80 108 96 117 68z"/>
</g>
</svg>
