<svg id="svg" version="1.1" xmlns="http://www.w3.org/2000/svg" xmlns:xlink="http://www.w3.org/1999/xlink" width="400" height="400" viewBox="0, 0, 400,400"><g id="svgg"><path id="path0" d="M87.939 0.194 C 87.823 0.310,86.338 0.432,84.640 0.464 C 82.822 0.498,81.767 0.659,82.076 0.855 C 82.594 1.184,81.254 1.369,79.381 1.226 C 78.930 1.192,78.043 1.433,77.409 1.761 C 76.776 2.090,76.109 2.268,75.929 2.156 C 75.748 2.044,75.600 2.143,75.600 2.376 C 75.600 2.618,74.741 2.800,73.600 2.800 C 72.500 2.800,71.600 2.980,71.600 3.200 C 71.600 3.420,71.229 3.600,70.776 3.600 C 70.323 3.600,70.064 3.780,70.200 4.000 C 70.347 4.238,69.871 4.400,69.024 4.400 C 68.155 4.400,67.598 4.595,67.594 4.900 C 67.589 5.266,67.495 5.254,67.242 4.855 C 67.017 4.500,66.845 4.464,66.748 4.751 C 66.667 4.994,66.105 5.234,65.500 5.284 C 64.895 5.334,64.400 5.515,64.400 5.687 C 64.400 5.859,64.130 6.000,63.800 6.000 C 63.470 6.000,63.200 6.180,63.200 6.400 C 63.200 6.620,62.876 6.800,62.480 6.800 C 62.084 6.800,61.518 7.025,61.221 7.300 C 60.784 7.706,60.742 7.688,61.000 7.200 C 61.258 6.712,61.216 6.694,60.779 7.100 C 60.482 7.375,59.956 7.600,59.608 7.600 C 59.261 7.600,58.738 7.931,58.446 8.336 C 58.098 8.819,57.584 9.010,56.958 8.890 C 56.410 8.785,56.000 8.898,56.000 9.153 C 56.000 9.399,55.640 9.600,55.200 9.600 C 54.760 9.600,54.400 9.780,54.400 10.000 C 54.400 10.220,54.040 10.400,53.600 10.400 C 53.156 10.400,52.800 10.667,52.800 11.000 C 52.800 11.330,52.468 11.600,52.062 11.600 C 51.656 11.600,51.002 11.956,50.609 12.391 C 50.215 12.825,49.741 13.087,49.555 12.972 C 49.129 12.709,47.542 13.538,46.961 14.326 C 46.694 14.688,46.316 14.795,45.999 14.599 C 45.654 14.386,45.573 14.433,45.762 14.738 C 45.919 14.992,45.844 15.200,45.595 15.200 C 44.927 15.200,43.994 16.252,44.319 16.639 C 44.474 16.823,44.320 16.761,43.977 16.502 C 43.477 16.123,43.243 16.185,42.789 16.815 C 42.478 17.247,41.948 17.603,41.612 17.606 C 41.145 17.611,41.121 17.689,41.511 17.937 C 42.080 18.298,40.504 19.195,39.281 19.206 C 38.695 19.211,38.684 19.266,39.200 19.600 C 39.685 19.914,39.628 19.989,38.900 19.994 C 38.329 19.998,38.000 20.244,38.000 20.667 C 38.000 21.033,37.886 21.220,37.747 21.081 C 37.608 20.942,36.996 21.362,36.387 22.014 C 35.778 22.666,34.981 23.200,34.616 23.200 C 34.251 23.200,34.030 23.335,34.124 23.500 C 34.316 23.837,32.576 25.643,32.313 25.379 C 32.050 25.117,29.200 27.852,29.200 28.367 C 29.200 28.619,28.885 28.946,28.501 29.093 C 27.760 29.378,26.000 31.001,26.000 31.401 C 26.000 31.531,25.538 32.067,24.973 32.590 C 24.408 33.113,23.913 33.690,23.873 33.871 C 23.833 34.052,23.665 34.155,23.500 34.100 C 23.335 34.045,23.200 34.294,23.200 34.653 C 23.200 35.012,22.873 35.597,22.472 35.953 C 22.072 36.309,21.628 36.915,21.485 37.300 C 21.342 37.685,20.949 38.000,20.613 38.000 C 20.246 38.000,19.998 38.361,19.994 38.900 C 19.989 39.628,19.914 39.685,19.600 39.200 C 19.266 38.684,19.211 38.695,19.206 39.281 C 19.195 40.504,18.298 42.080,17.937 41.511 C 17.674 41.098,17.611 41.099,17.606 41.517 C 17.603 41.801,17.253 42.406,16.829 42.861 C 16.406 43.316,16.155 43.938,16.272 44.244 C 16.390 44.550,16.273 44.800,16.014 44.800 C 15.376 44.800,14.400 45.818,14.400 46.483 C 14.400 46.780,14.040 47.283,13.600 47.600 C 13.160 47.917,12.800 48.497,12.800 48.888 C 12.800 49.280,12.620 49.600,12.400 49.600 C 12.180 49.600,12.000 50.050,12.000 50.600 C 12.000 51.150,11.801 51.600,11.557 51.600 C 11.314 51.600,11.218 51.870,11.345 52.200 C 11.485 52.565,11.345 52.800,10.987 52.800 C 10.664 52.800,10.400 53.160,10.400 53.600 C 10.400 54.040,10.220 54.400,10.000 54.400 C 9.780 54.400,9.600 54.760,9.600 55.200 C 9.600 55.640,9.420 56.000,9.200 56.000 C 8.980 56.000,8.800 56.546,8.800 57.213 C 8.800 57.921,8.551 58.521,8.200 58.655 C 7.870 58.782,7.600 59.057,7.600 59.266 C 7.600 59.476,7.825 59.533,8.100 59.393 C 8.375 59.253,8.150 59.533,7.600 60.015 C 7.050 60.496,6.645 60.960,6.700 61.045 C 7.001 61.512,6.741 63.211,6.400 63.000 C 6.164 62.854,5.997 63.297,5.994 64.076 C 5.989 65.107,5.897 65.267,5.576 64.800 C 5.234 64.301,5.175 64.335,5.228 65.000 C 5.364 66.700,5.185 68.038,4.849 67.830 C 4.543 67.641,4.331 68.221,3.776 70.760 C 3.708 71.068,3.452 71.444,3.205 71.597 C 2.959 71.749,2.789 72.037,2.826 72.237 C 3.045 73.397,2.746 75.614,2.400 75.400 C 2.169 75.257,2.000 75.636,2.000 76.296 C 2.000 76.925,1.836 77.611,1.635 77.820 C 1.435 78.029,1.178 79.190,1.064 80.400 C 0.951 81.610,0.710 83.770,0.529 85.200 C -0.054 89.810,0.116 315.977,0.704 316.340 C 1.020 316.536,1.222 317.647,1.247 319.329 C 1.270 320.802,1.448 322.106,1.644 322.227 C 1.840 322.348,2.000 322.987,2.000 323.647 C 2.000 324.345,2.167 324.744,2.400 324.600 C 2.647 324.448,2.800 325.129,2.800 326.376 C 2.800 327.489,2.980 328.400,3.200 328.400 C 3.420 328.400,3.613 328.985,3.628 329.700 C 3.652 330.789,3.712 330.870,4.000 330.200 C 4.324 329.445,4.345 329.452,4.372 330.326 C 4.387 330.836,4.586 331.601,4.814 332.026 C 5.123 332.604,5.098 332.802,4.714 332.806 C 4.314 332.811,4.320 332.888,4.739 333.154 C 5.036 333.342,5.306 333.969,5.339 334.547 C 5.373 335.126,5.535 335.600,5.700 335.600 C 5.865 335.600,6.000 335.990,6.000 336.467 C 6.000 336.943,6.117 337.216,6.261 337.073 C 6.404 336.929,6.764 337.280,7.061 337.852 C 7.728 339.139,7.735 339.323,7.100 338.965 C 6.700 338.739,6.700 338.790,7.100 339.221 C 7.375 339.518,7.600 340.084,7.600 340.480 C 7.600 340.876,7.772 341.200,7.982 341.200 C 8.192 341.200,8.482 341.828,8.626 342.596 C 8.770 343.365,9.048 343.894,9.244 343.773 C 9.440 343.652,9.600 344.013,9.600 344.576 C 9.600 345.163,9.806 345.557,10.082 345.500 C 10.347 345.445,10.566 345.760,10.568 346.200 C 10.570 346.640,10.796 347.140,11.070 347.311 C 11.343 347.481,11.465 347.886,11.341 348.211 C 11.203 348.570,11.351 348.800,11.720 348.800 C 12.118 348.800,12.257 349.061,12.126 349.561 C 11.988 350.088,12.187 350.405,12.769 350.590 C 13.233 350.737,13.509 351.023,13.384 351.226 C 13.259 351.428,13.341 351.910,13.566 352.297 C 13.891 352.855,13.983 352.876,14.013 352.400 C 14.034 352.061,14.214 352.207,14.426 352.737 C 14.633 353.252,14.682 353.882,14.537 354.137 C 14.391 354.392,14.418 354.468,14.596 354.306 C 15.023 353.920,15.971 355.189,15.987 356.167 C 15.994 356.588,16.111 356.822,16.248 356.686 C 16.485 356.449,17.600 357.324,17.600 357.747 C 17.600 357.859,18.140 358.542,18.800 359.264 C 19.460 359.987,20.003 360.943,20.006 361.389 C 20.011 362.059,20.080 362.096,20.400 361.600 C 20.712 361.117,20.789 361.181,20.794 361.924 C 20.797 362.436,20.978 362.737,21.200 362.600 C 21.420 362.464,21.600 362.594,21.600 362.888 C 21.600 363.183,21.960 363.683,22.400 364.000 C 22.840 364.317,23.203 364.942,23.206 365.388 C 23.211 366.059,23.280 366.096,23.600 365.600 C 23.914 365.115,23.989 365.172,23.994 365.900 C 23.997 366.397,24.248 366.800,24.553 366.800 C 24.858 366.800,25.206 367.178,25.326 367.640 C 25.447 368.102,25.736 368.363,25.968 368.219 C 26.234 368.055,26.293 368.213,26.127 368.645 C 25.949 369.111,26.015 369.238,26.332 369.042 C 26.589 368.883,26.800 368.956,26.800 369.205 C 26.800 369.691,27.775 370.800,28.203 370.800 C 28.592 370.800,31.600 374.010,31.600 374.425 C 31.600 374.623,32.093 374.909,32.696 375.060 C 33.915 375.366,34.896 376.171,34.514 376.552 C 34.378 376.689,34.527 376.800,34.845 376.800 C 35.163 376.800,35.683 377.160,36.000 377.600 C 36.317 378.040,36.817 378.400,37.112 378.400 C 37.406 378.400,37.536 378.580,37.400 378.800 C 37.263 379.022,37.564 379.203,38.076 379.206 C 38.819 379.211,38.883 379.288,38.400 379.600 C 37.890 379.930,37.908 379.989,38.517 379.994 C 38.911 379.997,39.620 380.360,40.092 380.800 C 40.564 381.240,41.232 381.603,41.575 381.606 C 42.125 381.612,42.128 381.659,41.600 382.000 C 41.174 382.275,41.150 382.390,41.517 382.394 C 41.801 382.397,42.420 382.760,42.892 383.200 C 43.364 383.640,44.049 384.000,44.414 384.000 C 44.779 384.000,45.273 384.405,45.512 384.900 C 45.751 385.395,45.958 385.547,45.973 385.239 C 45.993 384.826,46.185 384.879,46.700 385.439 C 47.085 385.857,47.670 386.259,48.000 386.330 C 48.330 386.402,48.660 386.627,48.733 386.830 C 48.807 387.034,49.212 387.200,49.633 387.200 C 50.055 387.200,50.400 387.358,50.400 387.551 C 50.400 387.745,50.940 388.127,51.600 388.400 C 52.260 388.673,52.800 389.055,52.800 389.249 C 52.800 389.442,53.145 389.600,53.567 389.600 C 53.988 389.600,54.424 389.825,54.535 390.100 C 54.681 390.462,54.746 390.445,54.768 390.039 C 54.790 389.655,55.040 389.754,55.559 390.353 C 55.976 390.834,56.471 391.202,56.659 391.170 C 57.282 391.066,58.800 391.688,58.800 392.047 C 58.800 392.241,59.441 392.400,60.224 392.400 C 61.071 392.400,61.547 392.562,61.400 392.800 C 61.254 393.036,61.697 393.203,62.476 393.206 C 63.478 393.211,63.654 393.307,63.200 393.600 C 62.755 393.888,63.013 393.997,64.200 394.022 C 65.463 394.049,65.631 394.129,65.000 394.400 C 64.361 394.675,64.507 394.749,65.724 394.772 C 66.562 394.787,67.160 394.942,67.052 395.115 C 66.945 395.288,67.340 395.470,67.929 395.519 C 68.518 395.567,69.060 395.785,69.133 396.003 C 69.207 396.222,69.567 396.397,69.933 396.394 C 70.510 396.389,70.519 396.335,70.000 396.000 C 69.109 395.424,69.752 395.519,70.948 396.139 C 71.520 396.436,71.906 396.761,71.805 396.861 C 71.705 396.962,72.023 397.053,72.512 397.065 C 75.009 397.125,75.628 397.232,75.422 397.565 C 75.298 397.766,75.646 397.881,76.195 397.820 C 76.744 397.760,77.397 397.956,77.646 398.255 C 77.923 398.589,78.917 398.800,80.216 398.800 C 81.554 398.800,82.395 398.984,82.500 399.300 C 82.633 399.698,105.936 399.800,197.233 399.800 C 313.600 399.800,318.554 399.773,318.170 399.152 C 317.964 398.818,319.381 398.625,320.900 398.779 C 321.285 398.818,321.600 398.696,321.600 398.507 C 321.600 398.318,322.270 398.118,323.088 398.063 C 323.906 398.008,324.688 397.781,324.826 397.557 C 324.964 397.334,325.822 397.141,326.733 397.129 C 327.644 397.116,328.291 396.947,328.171 396.753 C 328.051 396.559,328.413 396.400,328.976 396.400 C 329.539 396.400,330.000 396.220,330.000 396.000 C 330.000 395.780,330.540 395.600,331.200 395.600 C 331.890 395.600,332.403 395.388,332.406 395.100 C 332.411 394.734,332.505 394.746,332.758 395.145 C 332.983 395.500,333.155 395.536,333.252 395.249 C 333.333 395.006,333.895 394.766,334.500 394.716 C 335.105 394.666,335.600 394.485,335.600 394.313 C 335.600 394.141,336.005 393.997,336.500 393.994 C 337.228 393.989,337.285 393.914,336.800 393.600 C 336.247 393.243,337.305 392.964,338.500 393.153 C 338.665 393.179,338.800 393.020,338.800 392.800 C 338.800 392.580,339.250 392.400,339.800 392.400 C 340.350 392.400,340.800 392.243,340.800 392.050 C 340.800 391.719,342.945 391.116,343.430 391.310 C 343.554 391.359,343.835 391.081,344.053 390.692 C 344.271 390.302,344.619 390.088,344.828 390.217 C 345.036 390.346,345.489 390.168,345.835 389.822 C 346.181 389.476,346.630 389.295,346.832 389.420 C 347.035 389.545,347.200 389.457,347.200 389.224 C 347.200 388.991,347.560 388.800,348.000 388.800 C 348.440 388.800,348.800 388.620,348.800 388.400 C 348.800 388.180,349.205 387.997,349.700 387.994 C 350.428 387.989,350.485 387.914,350.000 387.600 C 349.487 387.269,349.502 387.211,350.100 387.206 C 350.485 387.203,350.800 387.001,350.800 386.757 C 350.800 386.514,351.070 386.418,351.400 386.545 C 351.730 386.671,352.000 386.590,352.000 386.364 C 352.000 386.138,352.184 386.067,352.410 386.206 C 352.635 386.345,352.770 386.221,352.710 385.930 C 352.648 385.630,352.947 385.400,353.400 385.400 C 353.840 385.400,354.435 385.085,354.723 384.700 C 355.010 384.315,355.513 384.000,355.841 384.000 C 356.552 384.000,358.456 382.189,358.109 381.842 C 357.976 381.709,358.257 381.600,358.733 381.600 C 359.210 381.600,359.600 381.420,359.600 381.200 C 359.600 380.980,360.005 380.797,360.500 380.794 C 361.228 380.789,361.285 380.714,360.800 380.400 C 360.287 380.069,360.302 380.011,360.900 380.006 C 361.285 380.003,361.600 379.820,361.600 379.600 C 361.600 379.380,361.798 379.200,362.040 379.200 C 362.281 379.200,362.983 378.660,363.600 378.000 C 364.217 377.340,364.907 376.800,365.134 376.800 C 365.360 376.800,365.663 376.433,365.805 375.984 C 365.959 375.499,366.539 375.072,367.232 374.934 C 367.886 374.803,368.400 374.442,368.400 374.113 C 368.400 373.789,368.738 373.437,369.150 373.329 C 369.563 373.221,370.140 372.686,370.432 372.141 C 370.723 371.596,371.466 370.852,372.081 370.488 C 372.697 370.125,373.200 369.579,373.200 369.276 C 373.200 368.973,373.560 368.631,374.000 368.516 C 374.440 368.401,374.800 368.148,374.800 367.953 C 374.800 367.199,374.930 366.971,375.849 366.119 C 376.372 365.635,376.800 365.122,376.800 364.980 C 376.800 364.837,377.340 364.217,378.000 363.600 C 378.660 362.983,379.200 362.281,379.200 362.040 C 379.200 361.798,379.380 361.600,379.600 361.600 C 379.820 361.600,380.003 361.285,380.006 360.900 C 380.011 360.302,380.069 360.287,380.400 360.800 C 380.714 361.285,380.789 361.228,380.794 360.500 C 380.797 360.005,380.980 359.600,381.200 359.600 C 381.420 359.600,381.600 359.210,381.600 358.733 C 381.600 358.257,381.711 357.978,381.848 358.114 C 382.214 358.481,382.969 357.598,384.090 355.492 C 384.638 354.462,385.202 353.735,385.343 353.877 C 385.484 354.018,385.600 353.833,385.600 353.467 C 385.600 353.100,385.791 352.800,386.024 352.800 C 386.257 352.800,386.336 352.620,386.200 352.400 C 386.064 352.180,386.233 352.000,386.576 352.000 C 386.919 352.000,387.200 351.747,387.200 351.438 C 387.200 350.769,388.869 347.458,389.302 347.266 C 389.469 347.192,389.512 346.982,389.399 346.798 C 389.285 346.615,389.476 346.181,389.822 345.835 C 390.168 345.489,390.346 345.036,390.217 344.828 C 390.088 344.619,390.273 344.287,390.627 344.089 C 390.982 343.890,391.242 343.606,391.206 343.457 C 391.055 342.843,391.691 340.800,392.032 340.800 C 392.234 340.800,392.400 340.461,392.400 340.046 C 392.400 339.132,393.378 336.711,393.641 336.974 C 393.744 337.078,393.867 336.694,393.915 336.121 C 393.962 335.549,394.226 334.810,394.500 334.479 C 394.775 334.148,394.955 333.815,394.900 333.739 C 394.658 333.404,394.830 332.771,395.115 332.948 C 395.288 333.055,395.469 332.670,395.517 332.094 C 395.565 331.517,395.803 330.922,396.047 330.771 C 396.354 330.581,396.322 330.420,395.945 330.248 C 395.523 330.056,395.513 329.947,395.900 329.767 C 396.175 329.638,396.400 329.178,396.400 328.743 C 396.400 328.308,396.551 328.046,396.735 328.160 C 396.919 328.274,397.099 327.620,397.135 326.707 C 397.171 325.794,397.335 324.946,397.500 324.824 C 397.832 324.576,397.972 324.049,398.093 322.582 C 398.138 322.042,398.292 321.600,398.437 321.600 C 398.581 321.600,398.715 320.790,398.735 319.801 C 398.755 318.812,398.930 317.687,399.125 317.301 C 399.778 316.006,399.800 312.151,399.800 199.800 C 399.800 89.481,399.769 84.152,399.124 83.753 C 398.946 83.643,398.803 83.338,398.806 83.076 C 398.810 82.790,398.967 82.839,399.200 83.200 C 399.501 83.666,399.589 83.549,399.594 82.676 C 399.597 82.028,399.431 81.657,399.200 81.800 C 398.954 81.952,398.800 81.287,398.800 80.073 C 398.800 78.779,398.587 77.921,398.182 77.585 C 397.842 77.303,397.648 76.853,397.751 76.585 C 397.853 76.317,397.759 75.919,397.541 75.701 C 397.322 75.482,397.120 74.482,397.091 73.478 C 397.062 72.474,396.895 71.741,396.719 71.850 C 396.544 71.958,396.397 71.362,396.394 70.524 C 396.389 69.393,396.288 69.155,396.000 69.600 C 395.680 70.095,395.611 70.056,395.606 69.380 C 395.603 68.929,395.377 68.337,395.103 68.063 C 394.708 67.668,394.717 67.499,395.149 67.232 C 395.502 67.013,395.537 66.845,395.249 66.748 C 395.006 66.667,394.766 66.105,394.716 65.500 C 394.666 64.895,394.485 64.400,394.313 64.400 C 394.141 64.400,394.000 64.010,394.000 63.533 C 394.000 63.057,393.883 62.784,393.739 62.927 C 393.338 63.329,392.400 61.248,392.400 59.954 C 392.400 59.319,392.234 58.800,392.032 58.800 C 391.829 58.800,391.535 58.215,391.378 57.500 C 391.221 56.786,390.749 55.903,390.330 55.539 C 389.767 55.051,389.702 54.823,390.084 54.670 C 390.479 54.512,390.483 54.456,390.100 54.432 C 389.825 54.414,389.600 54.117,389.600 53.771 C 389.600 53.426,389.321 52.864,388.980 52.523 C 388.640 52.182,388.258 51.388,388.132 50.758 C 388.006 50.128,387.765 49.698,387.597 49.802 C 387.429 49.906,387.193 49.615,387.072 49.155 C 386.933 48.624,386.676 48.429,386.365 48.622 C 386.053 48.815,385.979 48.757,386.162 48.462 C 386.322 48.203,386.217 47.997,385.924 47.994 C 385.543 47.989,385.564 47.882,386.000 47.600 C 386.505 47.274,386.482 47.211,385.853 47.206 C 385.309 47.202,385.162 46.987,385.312 46.414 C 385.452 45.879,385.276 45.551,384.759 45.387 C 384.012 45.150,383.830 44.741,383.983 43.646 C 384.034 43.279,383.831 43.179,383.385 43.350 C 382.894 43.539,382.774 43.445,382.943 43.005 C 383.071 42.672,383.001 42.400,382.787 42.400 C 382.574 42.400,382.397 42.085,382.394 41.700 C 382.389 41.102,382.331 41.087,382.000 41.600 C 381.659 42.128,381.612 42.125,381.606 41.575 C 381.603 41.232,381.240 40.564,380.800 40.092 C 380.360 39.620,379.997 38.911,379.994 38.517 C 379.989 37.908,379.930 37.890,379.600 38.400 C 379.273 38.906,379.211 38.884,379.206 38.260 C 379.203 37.854,378.660 37.017,378.000 36.400 C 377.340 35.783,376.800 35.071,376.800 34.816 C 376.800 34.561,376.620 34.464,376.400 34.600 C 376.180 34.736,376.000 34.594,376.000 34.286 C 376.000 33.977,375.639 33.397,375.198 32.998 C 374.756 32.598,374.478 32.189,374.580 32.087 C 374.818 31.849,371.652 28.800,371.167 28.800 C 370.965 28.800,370.800 28.612,370.800 28.382 C 370.800 27.740,368.914 26.000,368.218 26.000 C 367.878 26.000,367.645 25.775,367.700 25.500 C 367.755 25.225,367.575 25.045,367.300 25.100 C 367.025 25.155,366.797 24.885,366.794 24.500 C 366.790 24.054,366.681 23.965,366.494 24.256 C 366.279 24.589,366.068 24.570,365.712 24.185 C 365.327 23.771,365.327 23.617,365.712 23.461 C 365.980 23.352,365.835 23.249,365.388 23.232 C 364.942 23.214,364.317 22.840,364.000 22.400 C 363.683 21.960,363.183 21.600,362.888 21.600 C 362.594 21.600,362.464 21.420,362.600 21.200 C 362.737 20.978,362.436 20.797,361.924 20.794 C 361.181 20.789,361.117 20.712,361.600 20.400 C 362.076 20.092,361.993 20.010,361.200 20.000 C 360.407 19.990,360.324 19.908,360.800 19.600 C 361.287 19.285,361.234 19.211,360.517 19.206 C 360.031 19.203,358.884 18.487,357.969 17.616 C 357.053 16.745,356.165 16.070,355.995 16.116 C 355.826 16.162,355.307 15.767,354.844 15.239 C 354.373 14.703,354.000 14.509,354.000 14.800 C 354.000 15.139,353.754 15.055,353.300 14.561 C 352.915 14.143,352.330 13.741,352.000 13.670 C 351.670 13.598,351.340 13.373,351.267 13.170 C 351.193 12.966,350.743 12.797,350.267 12.794 C 349.543 12.789,349.499 12.717,350.000 12.359 C 350.485 12.013,350.433 11.967,349.726 12.121 C 349.204 12.235,348.766 12.088,348.638 11.756 C 348.521 11.450,348.149 11.200,347.813 11.200 C 347.476 11.200,347.200 11.043,347.200 10.852 C 347.200 10.661,346.795 10.526,346.300 10.552 C 345.775 10.580,345.442 10.392,345.500 10.100 C 345.559 9.804,345.182 9.600,344.576 9.600 C 343.996 9.600,343.660 9.427,343.800 9.200 C 343.940 8.974,343.614 8.800,343.052 8.800 C 342.505 8.800,341.787 8.530,341.457 8.200 C 341.127 7.870,340.574 7.600,340.229 7.600 C 339.883 7.600,339.600 7.420,339.600 7.200 C 339.600 6.980,338.835 6.797,337.900 6.794 C 336.655 6.789,336.361 6.684,336.800 6.400 C 337.258 6.104,337.103 6.011,336.146 6.006 C 334.769 5.999,332.658 5.075,333.073 4.661 C 333.216 4.517,332.763 4.400,332.067 4.400 C 331.370 4.400,330.800 4.220,330.800 4.000 C 330.800 3.780,330.260 3.600,329.600 3.600 C 328.940 3.600,328.400 3.420,328.400 3.200 C 328.400 2.980,327.489 2.800,326.376 2.800 C 325.129 2.800,324.448 2.647,324.600 2.400 C 324.744 2.167,324.345 2.000,323.647 2.000 C 322.987 2.000,322.347 1.837,322.224 1.638 C 322.101 1.440,321.108 1.270,320.017 1.261 C 318.926 1.253,317.621 1.011,317.117 0.723 C 316.193 0.196,88.463 -0.330,87.939 0.194 M235.588 131.115 C 238.747 133.066,241.579 138.998,240.401 141.198 C 240.180 141.610,240.000 142.328,240.000 142.794 C 240.000 144.727,237.538 147.379,211.863 173.101 L 185.011 200.003 211.865 226.901 C 237.397 252.476,240.000 255.276,240.000 257.161 C 240.000 257.602,240.189 258.377,240.420 258.884 C 241.332 260.886,239.151 266.282,236.662 268.180 C 233.260 270.774,230.211 271.307,226.515 269.951 C 224.160 269.087,163.524 209.464,161.124 205.652 C 158.972 202.234,159.092 197.195,161.400 194.056 C 161.914 193.357,223.721 131.535,224.451 130.990 C 227.068 129.034,232.314 129.093,235.588 131.115 " stroke="none" fill="#f4f4f4" fill-rule="evenodd"></path><path id="path1" d="M228.000 130.763 C 225.185 131.354,223.471 132.953,193.078 163.344 C 159.927 196.492,160.400 195.962,160.400 200.000 C 160.400 204.062,159.899 203.500,193.263 236.863 C 227.000 270.599,225.600 269.361,230.000 269.361 C 235.614 269.361,239.600 265.459,239.600 259.962 C 239.600 256.034,239.730 256.182,210.939 227.376 C 196.123 212.552,184.000 200.245,184.000 200.027 C 184.000 199.810,196.112 187.520,210.916 172.716 C 231.876 151.755,238.027 145.381,238.716 143.904 C 241.998 136.868,235.702 129.146,228.000 130.763 " stroke="none" fill="#b4b4c4" fill-rule="evenodd"></path><path id="path2" d="M226.800 130.000 C 226.005 130.514,227.004 130.514,228.200 130.000 L 229.000 129.656 228.200 129.634 C 227.760 129.622,227.130 129.787,226.800 130.000 M231.800 130.000 C 232.240 130.189,232.960 130.344,233.400 130.344 L 234.200 130.344 233.400 130.000 C 232.960 129.811,232.240 129.656,231.800 129.656 L 231.000 129.656 231.800 130.000 M235.200 131.076 C 236.820 132.232,238.248 133.872,238.982 135.419 C 239.360 136.214,239.765 136.768,239.883 136.651 C 240.589 135.944,236.942 131.631,234.800 130.640 C 234.470 130.488,234.650 130.684,235.200 131.076 M222.303 132.800 C 221.369 133.680,220.753 134.400,220.934 134.400 C 221.115 134.400,221.997 133.680,222.895 132.800 C 223.793 131.920,224.409 131.200,224.264 131.200 C 224.120 131.200,223.237 131.920,222.303 132.800 M217.700 137.383 C 216.765 138.362,216.000 139.291,216.000 139.448 C 216.000 139.743,218.215 137.538,219.162 136.300 C 220.108 135.064,219.448 135.553,217.700 137.383 M240.048 139.800 C 240.030 141.323,240.120 141.636,240.426 141.110 C 240.687 140.663,240.695 139.959,240.450 139.110 C 240.086 137.848,240.071 137.873,240.048 139.800 M239.171 144.470 C 238.846 145.255,228.033 156.372,211.717 172.696 C 196.913 187.508,184.800 199.819,184.800 200.054 C 184.800 200.289,196.874 212.559,211.632 227.321 C 226.389 242.083,238.801 254.799,239.214 255.580 C 240.129 257.311,240.256 256.872,239.359 255.080 C 239.007 254.376,226.634 241.696,211.865 226.901 L 185.011 200.003 211.863 173.101 C 235.575 149.345,240.572 144.039,239.883 143.350 C 239.787 143.253,239.466 143.757,239.171 144.470 M210.602 144.398 C 210.203 144.839,210.007 145.200,210.167 145.200 C 210.588 145.200,211.728 143.995,211.512 143.779 C 211.411 143.678,211.002 143.956,210.602 144.398 M205.227 149.802 C 204.252 150.784,203.532 151.662,203.627 151.753 C 203.722 151.844,204.668 151.037,205.728 149.959 C 206.789 148.882,207.509 148.004,207.328 148.008 C 207.148 148.012,206.202 148.820,205.227 149.802 M199.636 155.408 C 198.672 156.403,197.955 157.282,198.042 157.362 C 198.129 157.441,199.073 156.628,200.140 155.553 C 201.207 154.479,201.924 153.600,201.734 153.600 C 201.544 153.600,200.600 154.414,199.636 155.408 M194.202 160.798 C 193.803 161.239,193.607 161.600,193.767 161.600 C 194.188 161.600,195.328 160.395,195.112 160.179 C 195.011 160.078,194.602 160.356,194.202 160.798 M187.200 167.903 C 186.210 168.926,185.760 169.508,186.200 169.195 C 187.491 168.277,189.766 165.998,189.367 166.022 C 189.165 166.034,188.190 166.881,187.200 167.903 M182.495 172.549 C 181.563 173.480,180.800 174.375,180.800 174.539 C 180.800 174.703,181.635 174.014,182.656 173.008 C 183.676 172.001,184.439 171.106,184.351 171.018 C 184.263 170.930,183.428 171.619,182.495 172.549 M172.444 182.600 C 171.484 183.590,170.832 184.400,170.994 184.400 C 171.156 184.400,172.087 183.590,173.063 182.600 C 174.039 181.610,174.691 180.800,174.513 180.800 C 174.334 180.800,173.403 181.610,172.444 182.600 M167.700 187.383 C 166.765 188.362,166.000 189.291,166.000 189.448 C 166.000 189.743,168.215 187.538,169.162 186.300 C 170.108 185.064,169.448 185.553,167.700 187.383 M159.372 199.371 C 159.237 199.905,159.319 200.670,159.552 201.071 C 159.899 201.668,159.978 201.492,159.988 200.100 C 160.001 198.205,159.741 197.898,159.372 199.371 M160.018 203.422 C 159.992 204.026,162.123 207.262,163.139 208.162 C 164.435 209.309,164.173 208.573,162.759 207.096 C 162.077 206.383,161.185 205.170,160.777 204.400 C 160.369 203.630,160.027 203.190,160.018 203.422 M164.400 209.125 C 164.400 209.514,175.939 221.008,176.102 220.781 C 176.174 220.681,173.570 217.954,170.316 214.719 C 167.062 211.485,164.400 208.968,164.400 209.125 M178.593 223.593 C 179.448 224.469,180.223 225.111,180.314 225.019 C 180.519 224.814,177.740 222.000,177.332 222.000 C 177.170 222.000,177.737 222.717,178.593 223.593 M180.800 225.529 C 180.800 225.918,193.140 238.205,193.306 237.981 C 193.380 237.881,190.596 234.976,187.120 231.524 C 183.644 228.072,180.800 225.374,180.800 225.529 M194.993 239.993 C 195.848 240.869,196.623 241.511,196.714 241.419 C 196.919 241.214,194.140 238.400,193.732 238.400 C 193.570 238.400,194.137 239.117,194.993 239.993 M198.000 242.736 C 198.000 243.122,209.542 254.601,209.708 254.381 C 209.783 254.281,207.180 251.559,203.922 248.331 C 200.665 245.103,198.000 242.586,198.000 242.736 M211.791 256.791 C 212.869 257.886,213.825 258.708,213.914 258.619 C 214.118 258.416,210.530 254.800,210.126 254.800 C 209.963 254.800,210.712 255.696,211.791 256.791 M240.059 260.200 C 240.063 262.045,240.095 262.112,240.477 261.064 C 240.763 260.279,240.761 259.662,240.472 259.064 C 240.122 258.341,240.055 258.526,240.059 260.200 M214.400 259.130 C 214.400 260.260,224.335 269.121,226.515 269.935 C 230.945 271.590,235.830 270.096,238.451 266.284 C 239.121 265.311,238.895 265.448,237.521 266.851 C 232.065 272.420,226.963 271.506,219.100 263.550 C 216.515 260.935,214.400 258.946,214.400 259.130 M0.400 317.000 C 0.400 317.330,0.580 317.600,0.800 317.600 C 1.020 317.600,1.200 317.330,1.200 317.000 C 1.200 316.670,1.020 316.400,0.800 316.400 C 0.580 316.400,0.400 316.670,0.400 317.000 M366.229 375.429 C 365.041 376.616,365.478 376.747,366.800 375.600 C 367.307 375.160,367.528 374.800,367.290 374.800 C 367.052 374.800,366.574 375.083,366.229 375.429 " stroke="none" fill="#e4ecec" fill-rule="evenodd"></path><path id="path3" d="M228.296 129.935 C 227.909 130.088,228.676 130.213,230.000 130.213 C 231.324 130.213,232.091 130.088,231.704 129.935 C 231.317 129.782,230.550 129.656,230.000 129.656 C 229.450 129.656,228.683 129.782,228.296 129.935 M235.200 131.346 C 235.200 131.456,235.740 131.930,236.400 132.400 C 237.060 132.870,237.600 133.164,237.600 133.054 C 237.600 132.944,237.060 132.470,236.400 132.000 C 235.740 131.530,235.200 131.236,235.200 131.346 M202.598 152.802 C 201.558 153.951,202.020 154.080,203.114 152.946 C 203.617 152.426,203.870 152.000,203.676 152.000 C 203.482 152.000,202.997 152.361,202.598 152.802 M160.154 196.977 C 160.032 197.294,160.003 197.879,160.089 198.277 C 160.187 198.728,160.324 198.512,160.454 197.700 C 160.671 196.338,160.530 195.996,160.154 196.977 M185.021 199.177 C 184.634 199.604,184.412 200.189,184.527 200.477 C 184.689 200.880,184.744 200.869,184.768 200.431 C 184.786 200.119,185.098 199.534,185.462 199.131 C 185.826 198.729,186.034 198.400,185.924 198.400 C 185.814 198.400,185.408 198.750,185.021 199.177 M160.006 202.033 C 160.009 202.565,160.189 203.270,160.406 203.600 C 160.682 204.022,160.723 203.785,160.542 202.800 C 160.225 201.075,159.998 200.749,160.006 202.033 M170.600 215.200 C 171.683 216.300,172.660 217.200,172.770 217.200 C 172.880 217.200,172.083 216.300,171.000 215.200 C 169.917 214.100,168.940 213.200,168.830 213.200 C 168.720 213.200,169.517 214.100,170.600 215.200 M186.985 231.531 C 188.077 232.669,189.035 233.600,189.115 233.600 C 189.431 233.600,187.352 231.324,186.211 230.421 C 185.545 229.894,185.893 230.393,186.985 231.531 M203.400 248.000 C 204.483 249.100,205.460 250.000,205.570 250.000 C 205.680 250.000,204.883 249.100,203.800 248.000 C 202.717 246.900,201.740 246.000,201.630 246.000 C 201.520 246.000,202.317 246.900,203.400 248.000 M239.444 257.000 C 239.773 258.471,240.002 258.790,239.994 257.767 C 239.991 257.345,239.805 256.730,239.582 256.400 C 239.285 255.962,239.248 256.124,239.444 257.000 M239.646 262.067 C 239.621 262.434,239.496 263.064,239.370 263.467 C 239.152 264.162,239.163 264.163,239.597 263.487 C 239.848 263.096,239.973 262.466,239.873 262.087 C 239.711 261.468,239.688 261.466,239.646 262.067 M220.600 265.200 C 221.683 266.300,222.660 267.200,222.770 267.200 C 222.880 267.200,222.083 266.300,221.000 265.200 C 219.917 264.100,218.940 263.200,218.830 263.200 C 218.720 263.200,219.517 264.100,220.600 265.200 M227.849 270.049 C 228.791 270.419,231.179 270.432,232.084 270.072 C 232.460 269.922,231.492 269.790,229.933 269.777 C 228.329 269.764,227.424 269.882,227.849 270.049 " stroke="none" fill="#d4dcdc" fill-rule="evenodd"></path><path id="path4" d="M227.800 130.372 C 226.293 130.737,223.512 132.046,223.747 132.280 C 223.843 132.377,224.705 132.055,225.661 131.565 C 226.989 130.884,228.110 130.669,230.400 130.656 C 232.400 130.644,233.000 130.547,232.200 130.366 C 230.635 130.012,229.281 130.014,227.800 130.372 M234.600 131.543 C 236.374 132.638,237.822 134.226,238.775 136.119 C 239.239 137.044,239.500 137.352,239.353 136.805 C 238.751 134.564,235.253 130.796,233.778 130.801 C 233.570 130.802,233.940 131.136,234.600 131.543 M219.660 136.251 C 219.143 136.802,218.796 137.329,218.889 137.422 C 218.982 137.515,219.574 137.054,220.204 136.396 C 220.834 135.738,221.181 135.211,220.975 135.224 C 220.769 135.238,220.177 135.700,219.660 136.251 M239.714 140.200 C 239.717 141.300,239.795 141.703,239.887 141.095 C 239.979 140.486,239.977 139.586,239.882 139.095 C 239.787 138.603,239.711 139.100,239.714 140.200 M212.191 143.609 C 211.112 144.704,210.363 145.600,210.526 145.600 C 210.930 145.600,214.518 141.984,214.314 141.781 C 214.225 141.692,213.269 142.514,212.191 143.609 M238.691 143.891 C 238.325 144.698,238.086 145.420,238.160 145.494 C 238.235 145.568,238.604 144.978,238.982 144.182 C 239.359 143.386,239.598 142.665,239.512 142.579 C 239.426 142.493,239.057 143.084,238.691 143.891 M208.800 147.000 C 208.283 147.550,207.990 148.000,208.148 148.000 C 208.307 148.000,208.886 147.550,209.436 147.000 C 209.986 146.450,210.280 146.000,210.088 146.000 C 209.896 146.000,209.317 146.450,208.800 147.000 M236.600 146.979 C 234.435 149.337,234.034 150.000,235.794 148.314 C 236.876 147.277,237.680 146.356,237.581 146.268 C 237.481 146.179,237.040 146.499,236.600 146.979 M232.326 151.288 C 231.735 151.899,231.388 152.400,231.556 152.400 C 231.935 152.400,233.799 150.445,233.568 150.289 C 233.476 150.226,232.916 150.676,232.326 151.288 M202.860 153.042 C 202.562 153.378,202.399 153.732,202.495 153.829 C 202.592 153.926,202.998 153.644,203.398 153.202 C 203.797 152.761,203.961 152.407,203.762 152.415 C 203.563 152.424,203.157 152.705,202.860 153.042 M228.086 155.424 C 227.583 155.961,227.327 156.400,227.516 156.400 C 227.706 156.400,228.283 155.950,228.800 155.400 C 229.317 154.850,229.573 154.411,229.370 154.424 C 229.166 154.438,228.589 154.888,228.086 155.424 M224.862 158.658 C 223.906 159.648,223.197 160.530,223.286 160.619 C 223.375 160.709,224.331 159.886,225.409 158.791 C 226.488 157.696,227.197 156.813,226.985 156.829 C 226.773 156.845,225.818 157.668,224.862 158.658 M196.868 158.927 C 195.635 160.240,195.787 160.649,197.042 159.394 C 197.616 158.821,198.006 158.273,197.911 158.177 C 197.815 158.082,197.346 158.419,196.868 158.927 M193.391 162.409 C 192.312 163.504,191.563 164.400,191.726 164.400 C 192.130 164.400,195.718 160.784,195.514 160.581 C 195.425 160.492,194.469 161.314,193.391 162.409 M220.060 163.480 C 219.543 164.015,219.197 164.530,219.292 164.625 C 219.386 164.719,219.885 164.348,220.400 163.800 C 220.915 163.252,221.261 162.737,221.168 162.655 C 221.076 162.574,220.577 162.945,220.060 163.480 M216.800 167.000 C 215.828 167.990,215.123 168.800,215.233 168.800 C 215.343 168.800,216.228 167.990,217.200 167.000 C 218.172 166.010,218.877 165.200,218.767 165.200 C 218.657 165.200,217.772 166.010,216.800 167.000 M186.060 169.851 C 185.543 170.402,185.196 170.929,185.289 171.022 C 185.382 171.115,185.974 170.654,186.604 169.996 C 187.234 169.338,187.581 168.811,187.375 168.824 C 187.169 168.838,186.577 169.300,186.060 169.851 M213.286 170.224 C 212.783 170.761,212.527 171.200,212.716 171.200 C 212.906 171.200,213.483 170.750,214.000 170.200 C 214.517 169.650,214.773 169.211,214.570 169.224 C 214.366 169.238,213.789 169.688,213.286 170.224 M208.462 175.058 C 207.506 176.048,206.797 176.930,206.886 177.019 C 206.975 177.109,207.931 176.286,209.009 175.191 C 210.088 174.096,210.797 173.213,210.585 173.229 C 210.373 173.245,209.418 174.068,208.462 175.058 M180.196 175.604 C 179.566 176.262,179.182 176.800,179.343 176.800 C 179.756 176.800,181.722 174.788,181.513 174.580 C 181.419 174.486,180.826 174.946,180.196 175.604 M177.798 178.002 C 176.758 179.151,177.220 179.280,178.314 178.146 C 178.817 177.626,179.070 177.200,178.876 177.200 C 178.682 177.200,178.197 177.561,177.798 178.002 M205.260 178.280 C 204.743 178.815,204.397 179.330,204.492 179.425 C 204.586 179.519,205.085 179.148,205.600 178.600 C 206.115 178.052,206.461 177.537,206.368 177.455 C 206.276 177.374,205.777 177.745,205.260 178.280 M175.396 180.404 C 174.766 181.062,174.382 181.600,174.543 181.600 C 174.956 181.600,176.922 179.588,176.713 179.380 C 176.619 179.286,176.026 179.746,175.396 180.404 M201.126 182.488 C 200.535 183.099,200.188 183.600,200.356 183.600 C 200.735 183.600,202.599 181.645,202.368 181.489 C 202.276 181.426,201.716 181.876,201.126 182.488 M197.853 185.804 C 196.782 186.792,196.069 187.600,196.269 187.600 C 196.470 187.600,197.428 186.790,198.400 185.800 C 200.670 183.487,200.363 183.489,197.853 185.804 M169.660 186.251 C 169.143 186.802,168.796 187.329,168.889 187.422 C 168.982 187.515,169.574 187.054,170.204 186.396 C 170.834 185.738,171.181 185.211,170.975 185.224 C 170.769 185.238,170.177 185.700,169.660 186.251 M194.486 189.024 C 193.983 189.561,193.727 190.000,193.916 190.000 C 194.106 190.000,194.683 189.550,195.200 189.000 C 195.717 188.450,195.973 188.011,195.770 188.024 C 195.566 188.038,194.989 188.488,194.486 189.024 M191.661 191.855 C 190.925 192.625,190.396 193.330,190.487 193.420 C 190.578 193.511,191.352 192.869,192.207 191.993 C 193.063 191.117,193.591 190.412,193.381 190.427 C 193.172 190.443,192.397 191.085,191.661 191.855 M163.268 192.527 C 162.035 193.840,162.187 194.249,163.442 192.994 C 164.016 192.421,164.406 191.873,164.311 191.777 C 164.215 191.682,163.746 192.019,163.268 192.527 M188.860 194.680 C 188.343 195.215,187.997 195.730,188.092 195.825 C 188.186 195.919,188.685 195.548,189.200 195.000 C 189.715 194.452,190.061 193.937,189.968 193.855 C 189.876 193.774,189.377 194.145,188.860 194.680 M185.800 197.866 C 183.801 200.110,183.735 200.412,184.987 201.587 C 185.544 202.111,186.000 202.368,186.000 202.158 C 186.000 201.948,185.640 201.517,185.200 201.200 C 184.080 200.393,184.175 200.060,186.075 198.124 C 186.996 197.185,187.671 196.338,187.575 196.243 C 187.479 196.147,186.680 196.877,185.800 197.866 M160.093 200.000 C 160.093 200.770,160.175 201.085,160.276 200.700 C 160.376 200.315,160.376 199.685,160.276 199.300 C 160.175 198.915,160.093 199.230,160.093 200.000 M160.645 203.200 C 161.132 205.042,168.400 213.562,168.400 212.291 C 168.400 212.134,166.987 210.580,165.260 208.836 C 163.533 207.093,161.729 204.887,161.250 203.933 C 160.772 202.980,160.499 202.650,160.645 203.200 M168.800 212.702 C 168.800 212.870,172.940 217.144,178.000 222.200 C 183.060 227.256,187.200 231.260,187.200 231.098 C 187.200 230.935,183.060 226.661,178.000 221.600 C 172.940 216.539,168.800 212.535,168.800 212.702 M200.996 217.596 C 201.626 218.254,202.219 218.714,202.313 218.620 C 202.522 218.412,200.556 216.400,200.143 216.400 C 199.982 216.400,200.366 216.938,200.996 217.596 M209.286 225.746 C 209.789 226.267,210.274 226.628,210.364 226.549 C 210.597 226.345,209.148 224.800,208.724 224.800 C 208.530 224.800,208.783 225.226,209.286 225.746 M193.386 237.586 C 196.673 240.878,199.431 243.502,199.516 243.417 C 199.714 243.219,188.105 231.600,187.708 231.600 C 187.544 231.600,190.099 234.294,193.386 237.586 M217.793 234.393 C 218.648 235.269,219.423 235.911,219.514 235.819 C 219.719 235.614,216.940 232.800,216.532 232.800 C 216.370 232.800,216.937 233.517,217.793 234.393 M225.600 241.767 C 225.600 242.188,226.805 243.328,227.021 243.112 C 227.122 243.011,226.844 242.602,226.402 242.202 C 225.961 241.803,225.600 241.607,225.600 241.767 M200.000 243.905 C 200.000 244.320,205.934 250.209,206.119 249.978 C 206.198 249.880,204.853 248.403,203.131 246.695 C 201.409 244.988,200.000 243.732,200.000 243.905 M234.193 250.793 C 235.048 251.669,235.823 252.311,235.914 252.219 C 236.119 252.014,233.340 249.200,232.932 249.200 C 232.770 249.200,233.337 249.917,234.193 250.793 M212.186 256.386 C 215.473 259.678,218.231 262.302,218.316 262.217 C 218.514 262.019,206.905 250.400,206.508 250.400 C 206.344 250.400,208.899 253.094,212.186 256.386 M237.200 253.427 C 237.200 253.654,237.376 254.016,237.592 254.232 C 237.807 254.447,238.354 255.338,238.806 256.212 C 239.266 257.099,239.509 257.359,239.358 256.800 C 239.055 255.682,237.200 252.782,237.200 253.427 M239.709 260.000 C 239.709 260.990,239.787 261.395,239.882 260.900 C 239.978 260.405,239.978 259.595,239.882 259.100 C 239.787 258.605,239.709 259.010,239.709 260.000 M218.800 262.716 C 218.800 263.264,224.706 268.800,225.290 268.800 C 225.558 268.800,225.333 268.490,224.789 268.111 C 224.245 267.732,222.675 266.277,221.300 264.878 C 219.925 263.478,218.800 262.505,218.800 262.716 M238.861 263.598 C 238.313 265.168,237.140 266.664,235.516 267.862 C 234.817 268.378,234.460 268.800,234.722 268.800 C 235.976 268.800,240.183 263.249,239.470 262.536 C 239.372 262.439,239.098 262.917,238.861 263.598 M231.200 269.448 L 228.600 269.980 230.995 269.775 C 232.312 269.663,233.563 269.397,233.775 269.185 C 233.987 268.973,234.079 268.826,233.980 268.857 C 233.881 268.889,232.630 269.155,231.200 269.448 " stroke="none" fill="#c4ccd4" fill-rule="evenodd"></path></g></svg>