<svg width="316" height="201" viewBox="0 0 316 201" fill="none" xmlns="http://www.w3.org/2000/svg">
<g filter="url(#filter0_d_152_304)">
<path d="M58 80C58 78.3431 59.3431 77 61 77H223.872C225.146 77 226.282 76.1943 226.703 74.9911L233.796 54.7244C234.719 52.0872 238.429 52.0327 239.429 54.6416L247.262 75.0738C247.706 76.234 248.82 77 250.063 77H255C256.657 77 258 78.3431 258 80V134C258 135.657 256.657 137 255 137H61C59.3431 137 58 135.657 58 134V80Z" fill="white"/>
<path d="M257.5 80V134C257.5 135.381 256.381 136.5 255 136.5H61C59.6193 136.5 58.5 135.381 58.5 134V80C58.5 78.6193 59.6193 77.5 61 77.5H223.872C225.359 77.5 226.684 76.56 227.175 75.1562L234.268 54.8895C235.038 52.6919 238.129 52.6465 238.962 54.8206L246.795 75.2528C247.314 76.6064 248.613 77.5 250.063 77.5H255C256.381 77.5 257.5 78.6193 257.5 80Z" stroke="#C4CBD6" stroke-opacity="0.3"/>
</g>
<path d="M96.184 113V101.8H97.528V111.928H102.744V113H96.184ZM107.783 113.192C107.036 113.192 106.364 113.021 105.767 112.68C105.169 112.339 104.695 111.859 104.343 111.24C104.001 110.611 103.831 109.875 103.831 109.032C103.831 108.189 104.007 107.459 104.359 106.84C104.711 106.211 105.185 105.725 105.783 105.384C106.391 105.043 107.068 104.872 107.815 104.872C108.561 104.872 109.233 105.043 109.831 105.384C110.428 105.725 110.897 106.211 111.239 106.84C111.591 107.459 111.767 108.189 111.767 109.032C111.767 109.875 111.591 110.611 111.239 111.24C110.887 111.859 110.407 112.339 109.799 112.68C109.201 113.021 108.529 113.192 107.783 113.192ZM107.783 112.04C108.241 112.04 108.668 111.928 109.063 111.704C109.457 111.48 109.777 111.144 110.023 110.696C110.268 110.248 110.391 109.693 110.391 109.032C110.391 108.371 110.268 107.816 110.023 107.368C109.788 106.92 109.473 106.584 109.079 106.36C108.684 106.136 108.263 106.024 107.815 106.024C107.356 106.024 106.929 106.136 106.535 106.36C106.14 106.584 105.82 106.92 105.575 107.368C105.329 107.816 105.207 108.371 105.207 109.032C105.207 109.693 105.329 110.248 105.575 110.696C105.82 111.144 106.135 111.48 106.519 111.704C106.913 111.928 107.335 112.04 107.783 112.04ZM116.428 110.504C115.98 110.504 115.569 110.445 115.196 110.328L114.396 111.08C114.513 111.165 114.657 111.24 114.828 111.304C115.009 111.357 115.265 111.411 115.596 111.464C115.926 111.507 116.39 111.555 116.988 111.608C118.054 111.683 118.817 111.928 119.276 112.344C119.734 112.76 119.964 113.304 119.964 113.976C119.964 114.435 119.836 114.872 119.58 115.288C119.334 115.704 118.95 116.045 118.428 116.312C117.916 116.579 117.254 116.712 116.444 116.712C115.729 116.712 115.094 116.616 114.539 116.424C113.985 116.243 113.553 115.96 113.243 115.576C112.934 115.203 112.78 114.728 112.78 114.152C112.78 113.853 112.86 113.528 113.02 113.176C113.18 112.835 113.478 112.509 113.916 112.2C113.681 112.104 113.478 112.003 113.308 111.896C113.148 111.779 112.998 111.651 112.86 111.512V111.144L114.22 109.8C113.59 109.267 113.276 108.563 113.276 107.688C113.276 107.165 113.398 106.691 113.644 106.264C113.889 105.837 114.246 105.501 114.716 105.256C115.185 105 115.756 104.872 116.428 104.872C116.886 104.872 117.302 104.936 117.676 105.064H120.604V106.072L119.116 106.136C119.425 106.584 119.58 107.101 119.58 107.688C119.58 108.211 119.452 108.685 119.196 109.112C118.95 109.539 118.593 109.88 118.124 110.136C117.665 110.381 117.1 110.504 116.428 110.504ZM116.428 109.4C116.993 109.4 117.441 109.256 117.772 108.968C118.113 108.669 118.284 108.243 118.284 107.688C118.284 107.144 118.113 106.728 117.772 106.44C117.441 106.141 116.993 105.992 116.428 105.992C115.852 105.992 115.393 106.141 115.052 106.44C114.721 106.728 114.556 107.144 114.556 107.688C114.556 108.243 114.721 108.669 115.052 108.968C115.393 109.256 115.852 109.4 116.428 109.4ZM114.092 114.024C114.092 114.557 114.316 114.952 114.764 115.208C115.212 115.475 115.772 115.608 116.444 115.608C117.105 115.608 117.633 115.464 118.028 115.176C118.433 114.888 118.636 114.504 118.636 114.024C118.636 113.683 118.497 113.384 118.22 113.128C117.942 112.883 117.43 112.739 116.684 112.696C116.097 112.653 115.59 112.6 115.164 112.536C114.726 112.771 114.438 113.021 114.299 113.288C114.161 113.565 114.092 113.811 114.092 114.024ZM125.423 113.192C124.676 113.192 124.004 113.021 123.407 112.68C122.81 112.339 122.335 111.859 121.983 111.24C121.642 110.611 121.471 109.875 121.471 109.032C121.471 108.189 121.647 107.459 121.999 106.84C122.351 106.211 122.826 105.725 123.423 105.384C124.031 105.043 124.708 104.872 125.455 104.872C126.202 104.872 126.874 105.043 127.471 105.384C128.068 105.725 128.538 106.211 128.879 106.84C129.231 107.459 129.407 108.189 129.407 109.032C129.407 109.875 129.231 110.611 128.879 111.24C128.527 111.859 128.047 112.339 127.439 112.68C126.842 113.021 126.17 113.192 125.423 113.192ZM125.423 112.04C125.882 112.04 126.308 111.928 126.703 111.704C127.098 111.48 127.418 111.144 127.663 110.696C127.908 110.248 128.031 109.693 128.031 109.032C128.031 108.371 127.908 107.816 127.663 107.368C127.428 106.92 127.114 106.584 126.719 106.36C126.324 106.136 125.903 106.024 125.455 106.024C124.996 106.024 124.57 106.136 124.175 106.36C123.78 106.584 123.46 106.92 123.215 107.368C122.97 107.816 122.847 108.371 122.847 109.032C122.847 109.693 122.97 110.248 123.215 110.696C123.46 111.144 123.775 111.48 124.159 111.704C124.554 111.928 124.975 112.04 125.423 112.04ZM134.172 113.192C133.233 113.192 132.487 112.909 131.932 112.344C131.377 111.768 131.1 110.888 131.1 109.704V105.064H132.444V109.56C132.444 111.213 133.121 112.04 134.476 112.04C135.169 112.04 135.74 111.795 136.188 111.304C136.647 110.803 136.876 110.093 136.876 109.176V105.064H138.22V113H137.004L136.908 111.576C136.663 112.077 136.295 112.472 135.804 112.76C135.324 113.048 134.78 113.192 134.172 113.192ZM143.568 113C142.843 113 142.272 112.824 141.856 112.472C141.44 112.12 141.232 111.485 141.232 110.568V106.2H139.856V105.064H141.232L141.408 103.16H142.576V105.064H144.912V106.2H142.576V110.568C142.576 111.069 142.677 111.411 142.88 111.592C143.083 111.763 143.44 111.848 143.952 111.848H144.784V113H143.568Z" fill="#FF1733"/>
<defs>
<filter id="filter0_d_152_304" x="0" y="0.715408" width="316" height="200.285" filterUnits="userSpaceOnUse" color-interpolation-filters="sRGB">
<feFlood flood-opacity="0" result="BackgroundImageFix"/>
<feColorMatrix in="SourceAlpha" type="matrix" values="0 0 0 0 0 0 0 0 0 0 0 0 0 0 0 0 0 0 127 0" result="hardAlpha"/>
<feOffset dy="6"/>
<feGaussianBlur stdDeviation="29"/>
<feColorMatrix type="matrix" values="0 0 0 0 0.768627 0 0 0 0 0.796078 0 0 0 0 0.839216 0 0 0 0.2 0"/>
<feBlend mode="normal" in2="BackgroundImageFix" result="effect1_dropShadow_152_304"/>
<feBlend mode="normal" in="SourceGraphic" in2="effect1_dropShadow_152_304" result="shape"/>
</filter>
</defs>
</svg>
