<?xml version="1.0" standalone="no"?>
<!DOCTYPE svg PUBLIC "-//W3C//DTD SVG 20010904//EN"
 "http://www.w3.org/TR/2001/REC-SVG-20010904/DTD/svg10.dtd">
<svg version="1.0" xmlns="http://www.w3.org/2000/svg"
 width="512.000000pt" height="512.000000pt" viewBox="0 0 512.000000 512.000000"
 preserveAspectRatio="xMidYMid meet">

<g transform="translate(0.000000,512.000000) scale(0.100000,-0.100000)"
fill="#000000" stroke="none">
<path d="M1135 5113 c-208 -28 -403 -101 -575 -216 -96 -64 -273 -241 -337
-337 -95 -142 -162 -300 -199 -470 -18 -81 -19 -156 -19 -1530 0 -1360 1
-1450 18 -1528 115 -520 489 -894 1007 -1008 81 -18 156 -19 1530 -19 1371 0
1449 1 1530 19 124 27 223 62 334 119 347 177 585 492 673 889 17 78 18 168
18 1528 0 1371 -1 1449 -19 1530 -98 448 -405 802 -826 955 -41 14 -113 36
-160 48 -85 21 -93 21 -1515 23 -786 1 -1443 -1 -1460 -3z m1085 -1663 c18 0
816 -794 836 -832 17 -32 18 -81 3 -111 -6 -12 -192 -203 -413 -425 -435 -437
-434 -435 -512 -410 -67 23 -104 109 -73 171 6 12 167 178 357 369 l347 348
-358 358 -357 358 0 42 c0 24 7 57 16 73 17 34 87 72 119 64 11 -3 27 -5 35
-5z"/>
</g>
</svg>
