<svg id="svg" version="1.1" xmlns="http://www.w3.org/2000/svg" xmlns:xlink="http://www.w3.org/1999/xlink" width="400" height="400" viewBox="0, 0, 400,400"><g id="svgg"><path id="path0" d="M70.000 1.000 C 70.000 2.124,70.029 2.118,65.096 2.085 C 63.304 2.073,62.088 2.220,62.220 2.432 C 62.345 2.634,62.257 2.800,62.024 2.800 C 61.791 2.800,61.600 2.620,61.600 2.400 C 61.600 2.180,61.060 2.000,60.400 2.000 C 59.600 2.000,59.200 2.200,59.200 2.600 C 59.200 2.930,58.930 3.200,58.600 3.200 C 58.200 3.200,58.000 3.600,58.000 4.400 C 58.000 5.060,58.210 5.600,58.467 5.600 C 58.723 5.600,58.818 5.715,58.677 5.856 C 58.536 5.997,56.725 6.091,54.652 6.065 C 50.362 6.011,49.809 6.316,50.075 8.594 C 50.166 9.368,50.141 10.010,50.020 10.022 C 49.899 10.033,48.352 10.090,46.583 10.147 C 42.718 10.271,42.575 10.346,42.248 12.391 C 42.106 13.276,41.768 14.022,41.495 14.049 C 41.223 14.076,40.370 14.121,39.600 14.149 C 38.233 14.199,38.200 14.239,38.183 15.884 C 38.161 17.967,38.054 18.074,35.923 18.144 C 34.301 18.197,34.197 18.270,34.145 19.400 C 34.114 20.060,34.069 20.905,34.045 21.278 C 34.011 21.795,33.549 21.985,32.100 22.078 L 30.200 22.200 30.000 24.200 L 29.800 26.200 28.000 26.200 L 26.200 26.200 26.165 28.165 L 26.129 30.129 24.165 30.165 L 22.200 30.200 22.200 32.101 C 22.200 33.506,22.044 34.011,21.600 34.040 C 21.270 34.062,20.370 34.107,19.600 34.140 C 18.235 34.198,18.199 34.243,18.160 35.907 C 18.110 38.019,18.002 38.127,15.899 38.167 L 14.200 38.200 14.200 40.401 L 14.200 42.602 12.778 42.466 C 10.768 42.275,10.365 42.968,10.276 46.768 C 10.234 48.543,10.054 49.997,9.876 49.998 C 9.698 49.999,9.672 50.193,9.818 50.430 C 9.975 50.683,9.763 50.659,9.302 50.371 C 7.384 49.173,5.173 51.384,6.371 53.302 C 6.716 53.855,6.724 54.000,6.397 53.798 C 6.070 53.596,5.955 54.025,6.004 55.256 C 6.110 57.889,6.115 57.879,4.388 58.156 C 2.315 58.487,1.930 59.442,2.035 63.984 C 2.169 69.802,2.147 69.925,0.900 70.113 C -0.106 70.266,-0.087 70.285,1.124 70.340 C 2.634 70.408,2.499 71.200,0.976 71.200 C -0.382 71.200,-0.278 72.305,1.100 72.513 L 2.200 72.680 1.100 72.740 L 0.000 72.800 0.000 203.445 L 0.000 334.091 1.100 333.929 C 2.198 333.766,2.200 333.770,2.060 335.931 C 1.969 337.347,2.063 338.008,2.333 337.842 C 2.963 337.452,3.359 338.406,2.786 338.935 C 2.400 339.291,2.349 339.283,2.565 338.900 C 2.720 338.625,2.657 338.400,2.424 338.400 C 2.191 338.400,2.000 338.940,2.000 339.600 C 2.000 340.260,2.174 340.800,2.387 340.800 C 2.601 340.800,2.671 340.528,2.543 340.195 C 2.380 339.770,2.495 339.661,2.930 339.829 C 3.610 340.089,3.390 341.196,2.657 341.206 C 2.406 341.209,2.470 341.387,2.800 341.600 C 3.707 342.186,4.078 342.078,3.836 341.300 C 3.716 340.915,3.808 340.330,4.040 340.000 C 4.414 339.467,4.443 339.467,4.295 340.000 C 4.204 340.330,4.416 340.838,4.765 341.130 C 5.114 341.421,5.175 341.545,4.900 341.406 C 4.625 341.267,4.400 341.343,4.400 341.576 C 4.400 342.170,5.490 342.107,5.735 341.500 C 6.013 340.812,6.098 342.016,6.043 345.849 C 6.007 348.298,6.144 349.222,6.598 349.598 C 7.372 350.241,7.463 349.225,6.700 348.456 C 6.299 348.052,6.339 348.005,6.900 348.219 C 7.525 348.457,7.757 348.892,7.664 349.650 C 7.647 349.788,8.073 349.900,8.609 349.900 C 9.215 349.900,9.490 349.729,9.334 349.450 C 9.171 349.158,9.263 349.166,9.596 349.475 C 9.878 349.736,10.109 350.676,10.109 351.564 C 10.109 352.644,10.257 353.091,10.555 352.913 C 10.800 352.766,10.752 352.953,10.448 353.327 C 9.969 353.918,9.982 356.959,10.466 357.383 C 11.135 357.970,12.492 358.017,12.273 357.446 C 12.137 357.091,12.199 356.800,12.413 356.800 C 12.626 356.800,12.800 357.091,12.800 357.447 C 12.800 357.879,13.045 358.029,13.539 357.900 C 14.168 357.736,14.256 357.906,14.130 359.045 C 13.966 360.537,15.130 362.094,16.322 361.975 C 18.053 361.803,18.201 361.956,18.139 363.846 C 18.029 367.151,18.800 368.942,20.516 369.371 C 21.332 369.574,22.000 369.889,22.000 370.071 C 22.000 370.252,22.191 370.400,22.424 370.400 C 22.657 370.400,22.712 370.175,22.547 369.900 C 22.374 369.613,22.561 369.656,22.985 370.000 C 23.391 370.330,23.830 370.570,23.961 370.533 C 24.093 370.497,24.275 370.542,24.367 370.633 C 24.458 370.725,24.019 370.800,23.390 370.800 C 22.295 370.800,22.280 370.825,23.024 371.401 C 23.671 371.902,23.684 371.961,23.100 371.758 C 22.283 371.474,22.137 372.377,22.880 373.120 C 23.707 373.947,25.200 373.714,25.200 372.757 C 25.200 372.172,25.016 371.985,24.600 372.145 C 24.235 372.285,24.000 372.145,24.000 371.787 C 24.000 371.464,24.289 371.200,24.643 371.200 C 25.050 371.200,25.201 370.980,25.055 370.600 C 24.929 370.270,24.980 370.000,25.170 370.000 C 25.732 370.000,25.996 371.133,25.478 371.319 C 25.169 371.430,25.355 371.876,26.000 372.578 C 26.550 373.176,26.793 373.606,26.540 373.533 C 26.287 373.460,26.064 373.580,26.043 373.800 C 26.023 374.020,26.440 374.200,26.970 374.200 C 27.500 374.200,28.068 374.335,28.233 374.500 C 28.398 374.665,28.019 374.800,27.390 374.800 C 26.295 374.800,26.280 374.825,27.024 375.401 C 27.671 375.902,27.684 375.961,27.100 375.758 C 26.283 375.474,26.137 376.377,26.880 377.120 C 27.707 377.947,29.200 377.714,29.200 376.757 C 29.200 376.172,29.016 375.985,28.600 376.145 C 28.235 376.285,28.000 376.145,28.000 375.787 C 28.000 375.464,28.289 375.200,28.643 375.200 C 29.050 375.200,29.201 374.980,29.055 374.600 C 28.929 374.270,28.980 374.000,29.170 374.000 C 29.732 374.000,29.996 375.133,29.478 375.319 C 29.169 375.430,29.355 375.876,30.000 376.578 C 30.550 377.176,30.793 377.606,30.540 377.533 C 30.016 377.382,29.946 377.771,30.241 379.200 C 30.728 381.557,31.188 381.740,37.211 381.963 C 38.147 381.997,38.222 382.141,38.211 383.900 L 38.200 385.800 40.192 385.808 L 42.183 385.816 42.066 387.438 C 41.982 388.597,42.147 389.222,42.644 389.630 C 43.272 390.146,43.317 390.114,43.107 389.299 C 42.979 388.804,43.038 388.500,43.237 388.623 C 43.437 388.746,43.600 389.075,43.600 389.353 C 43.600 389.714,44.456 389.860,46.605 389.867 C 50.124 389.877,50.024 389.815,50.123 392.056 L 50.200 393.800 53.200 393.876 C 54.850 393.917,56.605 393.962,57.100 393.976 C 57.871 393.997,58.000 394.218,58.000 395.520 C 58.000 396.356,58.216 397.256,58.480 397.520 C 59.115 398.155,61.198 398.140,61.206 397.500 C 61.211 397.127,61.288 397.119,61.511 397.469 C 61.675 397.727,62.527 397.934,63.405 397.928 C 65.922 397.912,66.000 397.944,66.000 399.000 L 66.000 400.000 199.973 400.000 L 333.947 400.000 334.073 398.933 C 334.199 397.872,334.216 397.867,337.266 397.958 C 339.935 398.038,340.356 397.956,340.519 397.325 C 340.700 396.627,340.709 396.627,340.754 397.327 C 340.789 397.888,341.005 397.992,341.700 397.784 C 344.101 397.063,345.004 396.265,345.715 394.236 C 345.785 394.036,347.003 393.835,348.421 393.790 C 352.021 393.677,353.095 393.168,353.423 391.418 C 353.645 390.234,353.863 389.993,354.745 389.961 C 357.940 389.841,357.794 389.930,357.877 388.056 C 357.974 385.870,357.818 385.985,360.931 385.805 C 364.611 385.593,366.269 384.320,365.494 382.301 C 365.353 381.934,365.773 381.838,367.060 381.941 C 369.419 382.130,369.993 381.572,370.032 379.051 C 370.049 377.923,370.154 377.225,370.265 377.500 C 370.550 378.207,371.200 378.122,371.200 377.376 C 371.200 377.033,371.383 376.866,371.607 377.004 C 371.830 377.142,371.909 377.423,371.783 377.628 C 371.444 378.175,372.958 378.082,373.520 377.520 C 374.082 376.958,374.175 375.444,373.628 375.783 C 373.423 375.909,373.142 375.830,373.004 375.607 C 372.866 375.383,373.033 375.200,373.376 375.200 C 374.122 375.200,374.207 374.550,373.500 374.265 C 373.225 374.154,373.923 374.049,375.051 374.032 C 377.508 373.994,378.141 373.397,377.942 371.306 L 377.798 369.798 379.234 369.935 C 381.117 370.114,382.000 369.232,382.000 367.171 C 382.000 365.797,382.116 365.600,382.924 365.600 C 384.970 365.600,385.987 363.588,385.860 359.791 L 385.800 357.999 387.600 357.994 C 388.590 357.990,389.195 357.856,388.944 357.694 C 388.611 357.479,388.630 357.268,389.015 356.912 C 389.429 356.527,389.583 356.527,389.739 356.912 C 389.848 357.180,389.951 356.545,389.968 355.500 C 389.998 353.748,390.078 353.600,391.000 353.600 C 391.550 353.600,392.360 353.240,392.800 352.800 C 393.580 352.020,393.693 351.506,393.808 348.200 C 393.912 345.212,393.999 344.800,394.530 344.800 C 395.153 344.800,396.800 343.143,396.800 342.517 C 396.800 342.280,397.086 341.976,397.437 341.841 C 397.917 341.657,398.048 341.131,397.971 339.699 C 397.722 335.073,397.916 334.000,399.000 334.000 L 400.000 334.000 400.000 201.000 L 400.000 68.000 398.900 67.953 L 397.800 67.905 399.000 67.619 L 400.200 67.332 399.000 67.126 L 397.800 66.920 398.900 66.860 C 400.274 66.785,400.365 66.000,399.000 66.000 C 397.872 66.000,397.890 66.068,397.962 62.050 C 398.024 58.593,397.671 58.000,395.551 58.000 C 394.353 58.000,393.993 57.841,393.967 57.300 C 393.950 56.915,393.905 55.160,393.867 53.400 L 393.800 50.200 392.102 50.142 C 390.933 50.102,390.485 50.227,390.661 50.542 C 390.822 50.829,390.718 50.816,390.386 50.507 C 390.014 50.162,389.869 48.966,389.903 46.520 C 389.961 42.470,389.705 42.000,387.440 42.000 L 385.778 42.000 385.789 40.100 L 385.800 38.200 383.900 38.211 C 381.824 38.223,381.768 38.118,381.991 34.600 C 382.052 33.636,381.967 33.497,381.559 33.895 C 381.155 34.288,380.891 34.247,380.267 33.695 C 379.720 33.210,379.433 33.144,379.316 33.478 C 379.134 33.997,378.000 33.732,378.000 33.170 C 378.000 32.980,378.270 32.929,378.600 33.055 C 378.980 33.201,379.200 33.050,379.200 32.643 C 379.200 32.289,379.464 32.000,379.787 32.000 C 380.145 32.000,380.285 32.235,380.145 32.600 C 379.985 33.016,380.172 33.200,380.757 33.200 C 381.714 33.200,381.947 31.707,381.120 30.880 C 380.377 30.137,379.474 30.283,379.758 31.100 C 379.961 31.684,379.902 31.671,379.401 31.024 C 378.824 30.278,378.800 30.291,378.800 31.347 C 378.800 31.990,378.631 32.343,378.393 32.196 C 378.170 32.058,378.083 31.790,378.200 31.600 C 378.317 31.410,378.230 31.142,378.007 31.004 C 377.783 30.866,377.600 30.071,377.600 29.238 C 377.600 27.314,376.634 26.400,374.600 26.400 C 373.704 26.400,372.734 26.108,372.273 25.700 C 371.722 25.212,371.432 25.145,371.316 25.478 C 371.134 25.997,370.000 25.732,370.000 25.170 C 370.000 24.980,370.270 24.929,370.600 25.055 C 370.980 25.201,371.200 25.050,371.200 24.643 C 371.200 24.289,371.464 24.000,371.787 24.000 C 372.145 24.000,372.285 24.235,372.145 24.600 C 371.985 25.016,372.172 25.200,372.757 25.200 C 373.714 25.200,373.947 23.707,373.120 22.880 C 372.377 22.137,371.474 22.283,371.758 23.100 C 371.961 23.684,371.902 23.671,371.401 23.024 C 370.825 22.280,370.800 22.295,370.800 23.390 C 370.800 24.019,370.665 24.398,370.500 24.233 C 370.335 24.068,370.200 23.500,370.200 22.970 C 370.200 22.440,370.020 22.023,369.800 22.043 C 369.580 22.064,369.460 22.287,369.533 22.540 C 369.606 22.793,369.176 22.550,368.578 22.000 C 367.876 21.355,367.430 21.169,367.319 21.478 C 367.133 21.996,366.000 21.732,366.000 21.170 C 366.000 20.980,366.270 20.929,366.600 21.055 C 366.980 21.201,367.200 21.050,367.200 20.643 C 367.200 20.289,367.464 20.000,367.787 20.000 C 368.145 20.000,368.285 20.235,368.145 20.600 C 367.985 21.016,368.172 21.200,368.757 21.200 C 369.714 21.200,369.947 19.707,369.120 18.880 C 368.377 18.137,367.474 18.283,367.758 19.100 C 367.961 19.684,367.902 19.671,367.401 19.024 C 366.824 18.278,366.800 18.291,366.800 19.347 C 366.800 19.952,366.632 20.344,366.428 20.217 C 366.223 20.091,366.138 19.534,366.238 18.980 C 366.418 17.989,366.385 17.975,364.210 18.130 C 361.823 18.299,361.976 18.449,361.841 15.800 C 361.812 15.237,361.473 14.962,360.700 14.873 C 360.095 14.804,359.600 14.571,359.600 14.356 C 359.600 14.141,359.289 14.018,358.908 14.082 C 358.369 14.174,358.164 13.818,357.977 12.466 C 357.845 11.512,357.481 10.570,357.169 10.372 C 356.287 9.814,353.201 9.913,353.194 10.500 C 353.190 10.857,353.104 10.871,352.894 10.548 C 352.732 10.299,352.150 10.096,351.600 10.096 C 351.050 10.096,350.420 10.075,350.200 10.049 C 349.980 10.023,349.800 9.146,349.800 8.101 L 349.800 6.200 346.000 6.200 C 342.412 6.200,342.172 6.147,341.700 5.254 C 341.111 4.141,341.040 3.534,341.600 4.400 C 341.901 4.866,341.989 4.749,341.994 3.876 C 341.997 3.228,341.831 2.857,341.600 3.000 C 341.380 3.136,341.200 2.949,341.200 2.584 C 341.200 2.001,340.724 1.938,337.283 2.069 L 333.365 2.217 333.528 1.109 L 333.691 -0.000 201.845 -0.000 L 70.000 0.000 70.000 1.000 M51.757 6.969 C 51.547 7.515,50.400 8.193,50.400 7.771 C 50.400 7.451,51.368 6.432,51.687 6.415 C 51.846 6.407,51.877 6.656,51.757 6.969 M349.554 7.300 C 349.521 7.938,349.455 8.004,349.329 7.524 C 349.231 7.152,348.667 6.774,348.075 6.684 C 347.105 6.536,347.126 6.514,348.300 6.460 C 349.412 6.409,349.593 6.530,349.554 7.300 M44.346 12.266 C 43.974 12.713,43.803 12.729,43.562 12.338 C 43.140 11.656,43.496 11.185,44.223 11.464 C 44.693 11.645,44.719 11.816,44.346 12.266 M174.919 129.468 C 175.403 129.892,176.835 130.908,178.100 131.724 C 179.365 132.540,180.400 133.448,180.400 133.741 C 180.400 134.035,181.300 134.888,182.399 135.637 C 183.499 136.387,184.399 137.265,184.399 137.588 C 184.400 138.242,186.611 140.279,187.700 140.629 C 188.085 140.753,188.400 141.095,188.400 141.390 C 188.400 141.684,189.300 142.679,190.400 143.600 C 191.500 144.521,192.400 145.488,192.400 145.748 C 192.400 146.249,193.796 147.600,194.313 147.600 C 194.480 147.600,195.063 148.070,195.608 148.645 C 196.154 149.220,197.455 150.540,198.500 151.579 C 199.545 152.618,200.400 153.638,200.400 153.845 C 200.400 154.260,201.139 154.943,203.076 156.316 C 203.778 156.814,204.456 157.531,204.582 157.910 C 204.709 158.290,205.619 159.140,206.605 159.800 C 207.591 160.460,208.399 161.197,208.399 161.439 C 208.400 161.965,209.765 163.600,210.204 163.600 C 210.590 163.600,212.797 165.884,212.809 166.296 C 212.814 166.463,213.623 167.140,214.608 167.800 C 215.593 168.460,216.399 169.265,216.399 169.588 C 216.400 170.242,218.611 172.279,219.700 172.629 C 220.085 172.753,220.400 173.095,220.400 173.390 C 220.400 173.684,221.300 174.679,222.400 175.600 C 223.500 176.521,224.400 177.488,224.400 177.748 C 224.400 178.258,225.049 178.879,227.100 180.333 C 227.815 180.840,228.400 181.472,228.400 181.738 C 228.400 182.235,229.776 183.589,230.305 183.613 C 230.785 183.635,232.150 184.922,232.856 186.018 C 233.216 186.578,234.160 187.478,234.953 188.018 C 235.746 188.558,236.396 189.197,236.397 189.439 C 236.401 190.024,237.523 191.245,239.016 192.287 C 243.087 195.127,242.780 204.988,238.489 209.247 C 237.450 210.278,236.330 211.416,236.000 211.775 C 235.670 212.135,234.815 212.889,234.100 213.450 C 233.385 214.012,232.800 214.723,232.800 215.031 C 232.800 215.338,232.068 216.052,231.174 216.617 C 230.279 217.181,229.182 218.263,228.734 219.022 C 228.287 219.780,227.751 220.400,227.543 220.400 C 227.050 220.400,220.400 227.050,220.400 227.543 C 220.400 227.751,219.766 228.295,218.992 228.752 C 218.217 229.209,217.210 230.215,216.754 230.987 C 216.299 231.760,215.454 232.619,214.878 232.896 C 214.301 233.173,213.429 233.996,212.939 234.724 C 212.449 235.452,211.465 236.442,210.754 236.924 C 210.042 237.406,209.167 238.331,208.809 238.979 C 208.451 239.628,207.628 240.451,206.979 240.809 C 206.331 241.167,205.392 242.062,204.894 242.798 C 204.396 243.534,203.449 244.464,202.790 244.864 C 202.132 245.265,201.252 246.152,200.836 246.836 C 200.420 247.520,199.515 248.424,198.824 248.844 C 198.134 249.264,197.209 250.216,196.770 250.961 C 196.331 251.706,195.465 252.525,194.846 252.781 C 194.227 253.037,193.315 253.969,192.819 254.852 C 192.323 255.735,191.620 256.561,191.258 256.688 C 190.281 257.031,188.800 258.463,188.800 259.065 C 188.800 259.354,188.068 260.052,187.174 260.617 C 186.279 261.181,185.183 262.262,184.737 263.018 C 184.291 263.773,183.454 264.619,182.878 264.896 C 182.301 265.173,181.407 266.030,180.890 266.800 C 180.373 267.570,179.376 268.496,178.675 268.858 C 177.974 269.220,176.741 270.138,175.936 270.898 C 173.927 272.792,169.276 273.233,165.987 271.841 C 164.290 271.122,160.314 266.777,159.576 264.833 C 158.013 260.721,159.272 253.339,161.666 252.579 C 162.041 252.460,162.855 251.727,163.474 250.951 C 164.093 250.175,164.827 249.328,165.104 249.070 C 165.382 248.811,166.303 247.902,167.153 247.048 C 168.002 246.195,168.876 245.316,169.096 245.096 C 169.316 244.876,170.238 243.955,171.145 243.048 C 172.051 242.142,172.930 241.263,173.096 241.096 C 173.263 240.930,174.142 240.051,175.048 239.145 C 175.955 238.238,176.876 237.316,177.096 237.096 C 177.316 236.876,178.195 235.998,179.048 235.145 C 179.902 234.291,180.845 233.370,181.143 233.096 C 181.652 232.632,184.500 229.767,185.119 229.096 C 185.274 228.930,186.120 228.073,187.000 227.193 C 187.880 226.313,188.780 225.413,189.000 225.193 C 189.220 224.973,190.120 224.073,191.000 223.193 C 191.880 222.313,192.823 221.370,193.096 221.096 C 193.370 220.823,194.313 219.880,195.193 219.000 C 196.073 218.120,196.930 217.263,197.096 217.096 C 197.263 216.930,198.120 216.073,199.000 215.193 C 199.880 214.313,200.823 213.370,201.096 213.096 C 201.370 212.823,202.313 211.880,203.193 211.000 C 204.073 210.120,204.994 209.220,205.240 209.000 C 205.600 208.678,207.555 206.718,209.119 205.112 C 209.274 204.953,210.075 204.260,210.900 203.570 C 212.250 202.442,212.400 202.126,212.400 200.400 C 212.400 198.671,212.253 198.362,210.900 197.248 C 209.279 195.914,209.061 195.709,207.013 193.600 C 206.266 192.830,205.327 191.921,204.927 191.580 C 204.527 191.239,203.768 190.384,203.240 189.680 C 202.712 188.976,202.050 188.400,201.767 188.400 C 201.485 188.400,200.840 187.815,200.333 187.100 C 198.873 185.041,198.257 184.400,197.738 184.400 C 197.472 184.400,196.840 183.815,196.333 183.100 C 194.873 181.041,194.257 180.400,193.738 180.400 C 193.472 180.400,192.847 179.815,192.349 179.100 C 191.851 178.385,190.984 177.400,190.422 176.910 C 189.860 176.421,189.130 175.781,188.800 175.490 C 188.470 175.198,187.768 174.384,187.240 173.680 C 186.712 172.976,186.046 172.400,185.759 172.400 C 185.473 172.400,184.681 171.590,184.000 170.601 C 183.319 169.611,182.231 168.526,181.581 168.190 C 180.932 167.854,180.400 167.449,180.399 167.290 C 180.397 166.776,178.191 164.400,177.715 164.400 C 177.462 164.400,176.840 163.815,176.333 163.100 C 174.873 161.041,174.257 160.400,173.738 160.400 C 173.472 160.400,172.840 159.815,172.333 159.100 C 170.873 157.041,170.257 156.400,169.738 156.400 C 169.472 156.400,168.847 155.815,168.349 155.100 C 167.851 154.385,166.984 153.400,166.422 152.910 C 165.860 152.421,165.130 151.747,164.800 151.414 C 159.199 145.752,159.265 145.866,158.917 141.220 C 158.684 138.098,160.326 132.823,161.540 132.794 C 161.683 132.790,162.409 132.250,163.154 131.594 C 163.899 130.937,164.662 130.400,164.850 130.400 C 165.037 130.400,165.557 130.085,166.004 129.700 C 167.780 128.172,173.276 128.029,174.919 129.468 M32.320 379.280 C 33.074 380.034,32.893 381.029,32.000 381.029 C 31.372 381.029,31.219 380.790,31.285 379.914 C 31.379 378.690,31.596 378.556,32.320 379.280 " stroke="none" fill="#f4f4f4" fill-rule="evenodd"></path><path id="path1" d="M167.400 132.039 C 165.479 132.635,164.800 133.079,164.000 134.267 C 163.450 135.083,162.640 136.087,162.200 136.498 C 160.453 138.131,161.580 145.959,163.657 146.618 C 164.066 146.748,164.400 146.983,164.400 147.140 C 164.400 147.498,166.011 149.565,166.752 150.158 C 167.056 150.401,167.776 151.111,168.352 151.736 C 168.928 152.361,169.810 153.261,170.311 153.736 C 170.812 154.211,171.712 155.115,172.311 155.745 C 173.357 156.845,175.046 158.516,176.263 159.658 C 176.581 159.956,177.344 160.740,177.958 161.400 C 178.573 162.060,179.509 162.980,180.038 163.445 C 180.958 164.253,181.940 165.237,184.319 167.736 C 184.913 168.361,185.810 169.261,186.311 169.736 C 186.811 170.211,187.934 171.320,188.806 172.200 C 189.678 173.080,190.592 173.980,190.838 174.200 C 191.085 174.420,191.762 175.111,192.343 175.736 C 192.924 176.361,193.810 177.261,194.311 177.736 C 194.812 178.211,195.712 179.115,196.311 179.745 C 197.357 180.845,199.046 182.516,200.263 183.658 C 200.581 183.956,201.344 184.740,201.958 185.400 C 202.573 186.060,203.509 186.986,204.038 187.457 C 204.567 187.928,205.482 188.828,206.071 189.457 C 206.659 190.086,207.691 191.050,208.363 191.600 C 209.036 192.150,209.589 192.823,209.593 193.095 C 209.597 193.367,210.275 194.021,211.100 194.547 C 215.769 197.526,217.163 201.513,214.299 203.697 C 211.801 205.603,164.903 252.694,163.178 255.030 C 160.951 258.044,160.582 260.834,162.007 263.878 C 162.914 265.817,165.758 268.782,166.721 268.794 C 167.007 268.797,167.947 269.205,168.810 269.700 C 170.056 270.414,170.528 270.507,171.103 270.151 C 171.501 269.904,172.381 269.580,173.059 269.431 C 173.737 269.282,174.631 268.844,175.046 268.458 C 175.461 268.071,176.393 267.495,177.117 267.178 C 177.841 266.860,178.779 266.017,179.201 265.304 C 179.623 264.591,180.534 263.664,181.224 263.244 C 181.915 262.824,182.820 261.920,183.236 261.236 C 183.652 260.552,184.549 259.654,185.229 259.241 C 185.910 258.827,186.906 257.841,187.444 257.049 C 187.983 256.257,188.958 255.332,189.611 254.994 C 190.265 254.656,190.800 254.210,190.800 254.004 C 190.800 253.398,193.234 250.800,193.802 250.800 C 194.087 250.800,194.692 250.172,195.145 249.404 C 195.598 248.636,196.534 247.664,197.224 247.244 C 197.915 246.824,198.820 245.920,199.236 245.236 C 199.652 244.552,200.552 243.652,201.236 243.236 C 201.920 242.820,202.820 241.920,203.236 241.236 C 203.652 240.552,204.552 239.652,205.236 239.236 C 205.920 238.820,206.824 237.915,207.244 237.224 C 207.664 236.534,208.628 235.603,209.386 235.155 C 210.144 234.708,210.878 233.985,211.016 233.549 C 211.155 233.113,212.003 232.223,212.902 231.572 C 213.800 230.921,214.863 229.850,215.264 229.191 C 215.665 228.532,216.552 227.652,217.236 227.236 C 217.920 226.820,218.820 225.920,219.236 225.236 C 219.652 224.552,220.552 223.652,221.236 223.236 C 221.920 222.820,222.820 221.920,223.236 221.236 C 223.652 220.552,224.552 219.652,225.236 219.236 C 225.920 218.820,226.820 217.920,227.236 217.236 C 227.652 216.552,228.552 215.652,229.236 215.236 C 229.920 214.820,230.824 213.915,231.244 213.224 C 231.664 212.534,232.628 211.603,233.386 211.155 C 234.144 210.708,234.862 210.040,234.981 209.671 C 235.230 208.902,237.491 206.400,237.938 206.400 C 238.951 206.400,240.173 198.002,239.244 197.427 C 239.049 197.306,238.765 196.711,238.614 196.104 C 238.346 195.029,237.462 194.002,232.700 189.231 C 231.435 187.963,230.400 186.759,230.400 186.554 C 230.400 186.349,229.766 185.840,228.991 185.423 C 228.215 185.005,227.212 184.067,226.761 183.337 C 226.310 182.608,225.397 181.693,224.733 181.305 C 224.068 180.917,223.177 179.925,222.754 179.100 C 222.330 178.275,221.736 177.600,221.433 177.600 C 221.131 177.600,220.319 176.925,219.630 176.100 C 218.038 174.196,218.051 174.209,216.486 172.956 C 215.763 172.378,214.903 171.386,214.575 170.752 C 214.248 170.119,213.776 169.600,213.527 169.600 C 213.030 169.600,206.407 163.028,206.389 162.517 C 206.383 162.343,205.680 161.769,204.826 161.243 C 203.973 160.717,203.037 159.842,202.746 159.300 C 202.456 158.757,201.461 157.793,200.536 157.156 C 199.611 156.519,198.748 155.666,198.619 155.260 C 198.490 154.854,197.669 153.946,196.793 153.243 C 195.918 152.539,194.927 151.432,194.591 150.782 C 194.254 150.132,193.748 149.600,193.465 149.600 C 192.863 149.600,191.103 147.798,190.435 146.500 C 190.180 146.005,189.727 145.600,189.427 145.600 C 189.128 145.600,188.319 144.925,187.630 144.100 C 186.038 142.196,186.051 142.209,184.486 140.956 C 183.763 140.378,182.903 139.386,182.575 138.752 C 182.248 138.119,181.754 137.600,181.479 137.600 C 181.023 137.600,179.762 136.504,177.892 134.483 C 177.502 134.062,176.422 133.337,175.492 132.871 C 173.933 132.091,173.180 131.868,170.700 131.447 C 170.205 131.364,168.720 131.630,167.400 132.039 M31.200 380.327 C 31.200 380.781,31.408 381.281,31.662 381.438 C 31.969 381.628,32.014 381.546,31.796 381.194 C 31.566 380.821,31.646 380.732,32.068 380.894 C 32.424 381.031,32.667 380.897,32.667 380.562 C 32.667 380.253,32.578 380.088,32.470 380.197 C 32.362 380.305,32.032 380.193,31.737 379.948 C 31.317 379.599,31.200 379.682,31.200 380.327 " stroke="none" fill="#b1b6c4" fill-rule="evenodd"></path><path id="path2" d="M168.962 130.241 C 168.323 130.512,167.202 130.955,166.471 131.227 C 161.779 132.972,158.976 139.817,160.985 144.626 C 161.709 146.359,160.707 145.318,185.903 170.505 C 206.902 191.495,207.737 192.333,209.367 194.060 C 209.855 194.577,210.996 195.592,211.902 196.317 C 213.253 197.396,213.637 198.020,214.030 199.779 L 214.510 201.924 207.015 209.262 C 202.892 213.298,199.312 216.813,199.059 217.074 C 198.807 217.334,190.303 225.884,180.162 236.074 C 159.458 256.877,160.141 256.002,160.481 261.296 C 160.723 265.067,161.223 265.941,164.810 268.870 C 167.889 271.385,173.241 271.801,175.161 269.674 C 175.512 269.284,176.636 268.444,177.659 267.807 C 178.681 267.170,179.809 266.153,180.167 265.549 C 180.524 264.944,181.149 264.343,181.556 264.214 C 181.963 264.085,182.725 263.402,183.248 262.697 C 183.772 261.992,184.621 261.051,185.135 260.607 C 185.976 259.881,186.683 259.183,188.883 256.907 C 190.816 254.907,192.296 253.431,193.144 252.659 C 193.663 252.187,194.563 251.281,195.144 250.646 C 195.725 250.011,196.625 249.111,197.144 248.646 C 197.663 248.181,198.563 247.281,199.144 246.646 C 199.725 246.011,200.625 245.111,201.144 244.646 C 201.663 244.181,202.563 243.281,203.144 242.646 C 203.725 242.011,204.625 241.111,205.144 240.646 C 205.663 240.181,206.563 239.281,207.144 238.646 C 207.725 238.011,208.625 237.111,209.144 236.646 C 209.663 236.181,210.563 235.287,211.144 234.660 C 211.725 234.032,212.518 233.222,212.907 232.860 C 214.343 231.519,215.823 230.045,216.646 229.135 C 217.111 228.621,218.011 227.725,218.646 227.144 C 219.281 226.563,220.181 225.663,220.646 225.144 C 221.111 224.625,222.011 223.725,222.646 223.144 C 223.281 222.563,224.181 221.663,224.646 221.144 C 225.111 220.625,226.011 219.725,226.646 219.144 C 227.281 218.563,228.182 217.663,228.650 217.144 C 229.117 216.625,230.107 215.623,230.850 214.918 C 231.592 214.212,232.497 213.312,232.860 212.918 C 233.222 212.523,234.032 211.718,234.660 211.128 C 242.796 203.478,242.592 196.981,233.964 189.000 C 233.726 188.780,232.872 187.898,232.066 187.040 C 231.260 186.182,230.353 185.282,230.050 185.040 C 229.748 184.798,227.898 182.980,225.940 181.000 C 223.982 179.020,222.183 177.220,221.941 177.000 C 221.700 176.780,220.849 175.902,220.051 175.050 C 219.253 174.197,218.349 173.297,218.042 173.050 C 217.735 172.802,216.835 171.902,216.042 171.050 C 215.249 170.197,214.349 169.297,214.042 169.050 C 213.735 168.802,212.835 167.902,212.042 167.050 C 211.249 166.197,210.349 165.297,210.042 165.050 C 209.735 164.802,208.835 163.902,208.042 163.050 C 207.249 162.197,206.356 161.297,206.058 161.050 C 205.759 160.802,203.901 158.980,201.929 157.000 C 199.957 155.020,198.161 153.220,197.938 153.000 C 197.714 152.780,196.872 151.898,196.066 151.040 C 195.260 150.182,194.348 149.282,194.040 149.040 C 193.731 148.798,192.792 147.880,191.952 147.000 C 191.113 146.120,190.218 145.220,189.964 145.000 C 189.710 144.780,188.849 143.902,188.051 143.050 C 187.253 142.197,186.349 141.297,186.042 141.050 C 185.735 140.802,184.835 139.902,184.042 139.050 C 183.249 138.197,182.346 137.297,182.036 137.050 C 181.725 136.802,180.660 135.800,179.668 134.822 C 178.676 133.845,177.310 132.756,176.632 132.403 C 175.955 132.050,175.040 131.558,174.600 131.310 C 172.642 130.207,170.158 129.736,168.962 130.241 M172.700 131.813 C 174.212 132.105,177.035 133.557,177.892 134.483 C 179.762 136.504,181.023 137.600,181.479 137.600 C 181.754 137.600,182.248 138.119,182.575 138.752 C 182.903 139.386,183.763 140.378,184.486 140.956 C 186.051 142.209,186.038 142.196,187.630 144.100 C 188.319 144.925,189.128 145.600,189.427 145.600 C 189.727 145.600,190.180 146.005,190.435 146.500 C 191.103 147.798,192.863 149.600,193.465 149.600 C 193.748 149.600,194.254 150.132,194.591 150.782 C 194.927 151.432,195.918 152.539,196.793 153.243 C 197.669 153.946,198.490 154.854,198.619 155.260 C 198.748 155.666,199.611 156.519,200.536 157.156 C 201.461 157.793,202.456 158.757,202.746 159.300 C 203.037 159.842,203.973 160.717,204.826 161.243 C 205.680 161.769,206.383 162.343,206.389 162.517 C 206.407 163.028,213.030 169.600,213.527 169.600 C 213.776 169.600,214.248 170.119,214.575 170.752 C 214.903 171.386,215.763 172.378,216.486 172.956 C 218.051 174.209,218.038 174.196,219.630 176.100 C 220.319 176.925,221.131 177.600,221.433 177.600 C 221.736 177.600,222.330 178.275,222.754 179.100 C 223.177 179.925,224.068 180.917,224.733 181.305 C 225.397 181.693,226.310 182.608,226.761 183.337 C 227.212 184.067,228.215 185.005,228.991 185.423 C 229.766 185.840,230.400 186.349,230.400 186.554 C 230.400 186.759,231.435 187.963,232.700 189.231 C 237.462 194.002,238.346 195.029,238.614 196.104 C 238.765 196.711,239.049 197.306,239.244 197.427 C 240.173 198.002,238.951 206.400,237.938 206.400 C 237.491 206.400,235.230 208.902,234.981 209.671 C 234.862 210.040,234.144 210.708,233.386 211.155 C 232.628 211.603,231.664 212.534,231.244 213.224 C 230.824 213.915,229.920 214.820,229.236 215.236 C 228.552 215.652,227.652 216.552,227.236 217.236 C 226.820 217.920,225.920 218.820,225.236 219.236 C 224.552 219.652,223.652 220.552,223.236 221.236 C 222.820 221.920,221.920 222.820,221.236 223.236 C 220.552 223.652,219.652 224.552,219.236 225.236 C 218.820 225.920,217.920 226.820,217.236 227.236 C 216.552 227.652,215.665 228.532,215.264 229.191 C 214.863 229.850,213.800 230.921,212.902 231.572 C 212.003 232.223,211.155 233.113,211.016 233.549 C 210.878 233.985,210.144 234.708,209.386 235.155 C 208.628 235.603,207.664 236.534,207.244 237.224 C 206.824 237.915,205.920 238.820,205.236 239.236 C 204.552 239.652,203.652 240.552,203.236 241.236 C 202.820 241.920,201.920 242.820,201.236 243.236 C 200.552 243.652,199.652 244.552,199.236 245.236 C 198.820 245.920,197.915 246.824,197.224 247.244 C 196.534 247.664,195.598 248.636,195.145 249.404 C 194.692 250.172,194.087 250.800,193.802 250.800 C 193.234 250.800,190.800 253.398,190.800 254.004 C 190.800 254.210,190.265 254.656,189.611 254.994 C 188.958 255.332,187.983 256.257,187.444 257.049 C 186.906 257.841,185.910 258.827,185.229 259.241 C 184.549 259.654,183.652 260.552,183.236 261.236 C 182.820 261.920,181.915 262.824,181.224 263.244 C 180.534 263.664,179.623 264.591,179.201 265.304 C 178.779 266.017,177.841 266.860,177.117 267.178 C 176.393 267.495,175.461 268.071,175.046 268.458 C 174.631 268.844,173.737 269.282,173.059 269.431 C 172.381 269.580,171.501 269.904,171.103 270.151 C 170.528 270.507,170.056 270.414,168.810 269.700 C 167.947 269.205,167.007 268.797,166.721 268.794 C 165.758 268.782,162.914 265.817,162.007 263.878 C 160.582 260.834,160.951 258.044,163.178 255.030 C 164.903 252.694,211.801 205.603,214.299 203.697 C 217.163 201.513,215.769 197.526,211.100 194.547 C 210.275 194.021,209.597 193.367,209.593 193.095 C 209.589 192.823,209.036 192.150,208.363 191.600 C 207.691 191.050,206.659 190.086,206.071 189.457 C 205.482 188.828,204.567 187.928,204.038 187.457 C 203.509 186.986,202.573 186.060,201.958 185.400 C 201.344 184.740,200.581 183.956,200.263 183.658 C 199.046 182.516,197.357 180.845,196.311 179.745 C 195.712 179.115,194.812 178.211,194.311 177.736 C 193.810 177.261,192.924 176.361,192.343 175.736 C 191.762 175.111,191.085 174.420,190.838 174.200 C 190.592 173.980,189.678 173.080,188.806 172.200 C 187.934 171.320,186.811 170.211,186.311 169.736 C 185.810 169.261,184.913 168.361,184.319 167.736 C 181.940 165.237,180.958 164.253,180.038 163.445 C 179.509 162.980,178.573 162.060,177.958 161.400 C 177.344 160.740,176.581 159.956,176.263 159.658 C 175.046 158.516,173.357 156.845,172.311 155.745 C 171.712 155.115,170.812 154.211,170.311 153.736 C 169.810 153.261,168.928 152.361,168.352 151.736 C 167.776 151.111,167.056 150.401,166.752 150.158 C 166.011 149.565,164.400 147.498,164.400 147.140 C 164.400 146.983,164.066 146.748,163.657 146.618 C 161.580 145.959,160.453 138.131,162.200 136.498 C 162.640 136.087,163.450 135.083,164.000 134.267 C 165.066 132.685,168.781 131.122,170.700 131.447 C 171.195 131.531,172.095 131.696,172.700 131.813 " stroke="none" fill="#ccccd4" fill-rule="evenodd"></path><path id="path3" d="M178.800 134.125 C 178.800 134.194,179.385 134.779,180.100 135.425 L 181.400 136.600 180.225 135.300 C 179.130 134.088,178.800 133.816,178.800 134.125 M240.514 199.800 C 240.517 200.900,240.595 201.303,240.687 200.695 C 240.779 200.086,240.777 199.186,240.682 198.695 C 240.587 198.203,240.511 198.700,240.514 199.800 M213.668 199.400 C 213.662 199.840,213.811 200.560,214.000 201.000 C 214.438 202.019,214.438 200.968,214.000 199.600 C 213.743 198.796,213.677 198.757,213.668 199.400 M177.775 238.100 L 176.600 239.400 177.900 238.225 C 179.112 237.130,179.384 236.800,179.075 236.800 C 179.006 236.800,178.421 237.385,177.775 238.100 M173.775 242.100 L 172.600 243.400 173.900 242.225 C 175.112 241.130,175.384 240.800,175.075 240.800 C 175.006 240.800,174.421 241.385,173.775 242.100 M165.775 250.100 L 164.600 251.400 165.900 250.225 C 167.112 249.130,167.384 248.800,167.075 248.800 C 167.006 248.800,166.421 249.385,165.775 250.100 " stroke="none" fill="#ccd4d4" fill-rule="evenodd"></path><path id="path4" d="M367.200 20.245 C 367.200 20.468,367.784 21.179,368.499 21.825 L 369.797 23.000 368.805 21.800 C 368.259 21.140,367.674 20.429,367.506 20.220 C 367.316 19.984,367.200 19.994,367.200 20.245 M371.200 24.330 C 371.200 24.512,371.679 25.097,372.263 25.630 L 373.327 26.600 372.388 25.300 C 371.412 23.948,371.200 23.775,371.200 24.330 M379.200 32.330 C 379.200 32.512,379.679 33.097,380.263 33.630 L 381.327 34.600 380.388 33.300 C 379.412 31.948,379.200 31.775,379.200 32.330 M1.000 70.800 L -0.200 71.105 0.876 71.153 C 1.468 71.179,2.064 71.020,2.200 70.800 C 2.336 70.580,2.392 70.421,2.324 70.447 C 2.256 70.473,1.660 70.632,1.000 70.800 M167.709 128.716 C 167.219 128.872,166.452 129.315,166.004 129.700 C 165.557 130.085,165.037 130.400,164.850 130.400 C 164.662 130.400,163.899 130.937,163.154 131.594 C 162.409 132.250,161.683 132.790,161.540 132.794 C 160.326 132.823,158.684 138.098,158.917 141.220 C 159.265 145.866,159.199 145.752,164.800 151.414 C 165.130 151.747,165.860 152.421,166.422 152.910 C 166.984 153.400,167.851 154.385,168.349 155.100 C 168.847 155.815,169.472 156.400,169.738 156.400 C 170.257 156.400,170.873 157.041,172.333 159.100 C 172.840 159.815,173.472 160.400,173.738 160.400 C 174.257 160.400,174.873 161.041,176.333 163.100 C 176.840 163.815,177.462 164.400,177.715 164.400 C 178.191 164.400,180.397 166.776,180.399 167.290 C 180.400 167.449,180.932 167.854,181.581 168.190 C 182.231 168.526,183.319 169.611,184.000 170.601 C 184.681 171.590,185.473 172.400,185.759 172.400 C 186.046 172.400,186.712 172.976,187.240 173.680 C 187.768 174.384,188.470 175.198,188.800 175.490 C 189.130 175.781,189.860 176.421,190.422 176.910 C 190.984 177.400,191.851 178.385,192.349 179.100 C 192.847 179.815,193.472 180.400,193.738 180.400 C 194.257 180.400,194.873 181.041,196.333 183.100 C 196.840 183.815,197.472 184.400,197.738 184.400 C 198.257 184.400,198.873 185.041,200.333 187.100 C 200.840 187.815,201.485 188.400,201.767 188.400 C 202.050 188.400,202.712 188.976,203.240 189.680 C 203.768 190.384,204.527 191.239,204.927 191.580 C 205.327 191.921,206.266 192.830,207.013 193.600 C 209.061 195.709,209.279 195.914,210.900 197.248 C 212.253 198.362,212.400 198.671,212.400 200.400 C 212.400 202.126,212.250 202.442,210.900 203.570 C 210.075 204.260,209.274 204.953,209.119 205.112 C 207.555 206.718,205.600 208.678,205.240 209.000 C 204.994 209.220,204.073 210.120,203.193 211.000 C 202.313 211.880,201.370 212.823,201.096 213.096 C 200.823 213.370,199.880 214.313,199.000 215.193 C 198.120 216.073,197.263 216.930,197.096 217.096 C 196.930 217.263,196.073 218.120,195.193 219.000 C 194.313 219.880,193.370 220.823,193.096 221.096 C 192.823 221.370,191.880 222.313,191.000 223.193 C 190.120 224.073,189.220 224.973,189.000 225.193 C 188.780 225.413,187.880 226.313,187.000 227.193 C 186.120 228.073,185.274 228.930,185.119 229.096 C 184.500 229.767,181.652 232.632,181.143 233.096 C 180.845 233.370,179.902 234.291,179.048 235.145 C 178.195 235.998,177.316 236.876,177.096 237.096 C 176.876 237.316,175.955 238.238,175.048 239.145 C 174.142 240.051,173.263 240.930,173.096 241.096 C 172.930 241.263,172.051 242.142,171.145 243.048 C 170.238 243.955,169.316 244.876,169.096 245.096 C 168.876 245.316,168.002 246.195,167.153 247.048 C 166.303 247.902,165.382 248.811,165.104 249.070 C 164.827 249.328,164.093 250.175,163.474 250.951 C 162.855 251.727,162.041 252.460,161.666 252.579 C 159.272 253.339,158.013 260.721,159.576 264.833 C 160.314 266.777,164.290 271.122,165.987 271.841 C 169.276 273.233,173.927 272.792,175.936 270.898 C 176.741 270.138,177.974 269.220,178.675 268.858 C 179.376 268.496,180.373 267.570,180.890 266.800 C 181.407 266.030,182.301 265.173,182.878 264.896 C 183.454 264.619,184.291 263.773,184.737 263.018 C 185.183 262.262,186.279 261.181,187.174 260.617 C 188.068 260.052,188.800 259.354,188.800 259.065 C 188.800 258.463,190.281 257.031,191.258 256.688 C 191.620 256.561,192.323 255.735,192.819 254.852 C 193.315 253.969,194.227 253.037,194.846 252.781 C 195.465 252.525,196.331 251.706,196.770 250.961 C 197.209 250.216,198.134 249.264,198.824 248.844 C 199.515 248.424,200.420 247.520,200.836 246.836 C 201.252 246.152,202.132 245.265,202.790 244.864 C 203.449 244.464,204.396 243.534,204.894 242.798 C 205.392 242.062,206.331 241.167,206.979 240.809 C 207.628 240.451,208.451 239.628,208.809 238.979 C 209.167 238.331,210.042 237.406,210.754 236.924 C 211.465 236.442,212.449 235.452,212.939 234.724 C 213.429 233.996,214.301 233.173,214.878 232.896 C 215.454 232.619,216.299 231.760,216.754 230.987 C 217.210 230.215,218.217 229.209,218.992 228.752 C 219.766 228.295,220.400 227.751,220.400 227.543 C 220.400 227.050,227.050 220.400,227.543 220.400 C 227.751 220.400,228.287 219.780,228.734 219.022 C 229.182 218.263,230.279 217.181,231.174 216.617 C 232.068 216.052,232.800 215.338,232.800 215.031 C 232.800 214.723,233.385 214.012,234.100 213.450 C 234.815 212.889,235.670 212.135,236.000 211.775 C 236.330 211.416,237.450 210.278,238.489 209.247 C 242.780 204.988,243.087 195.127,239.016 192.287 C 237.523 191.245,236.401 190.024,236.397 189.439 C 236.396 189.197,235.746 188.558,234.953 188.018 C 234.160 187.478,233.216 186.578,232.856 186.018 C 232.150 184.922,230.785 183.635,230.305 183.613 C 229.776 183.589,228.400 182.235,228.400 181.738 C 228.400 181.472,227.815 180.840,227.100 180.333 C 225.049 178.879,224.400 178.258,224.400 177.748 C 224.400 177.488,223.500 176.521,222.400 175.600 C 221.300 174.679,220.400 173.684,220.400 173.390 C 220.400 173.095,220.085 172.753,219.700 172.629 C 218.611 172.279,216.400 170.242,216.399 169.588 C 216.399 169.265,215.593 168.460,214.608 167.800 C 213.623 167.140,212.814 166.463,212.809 166.296 C 212.797 165.884,210.590 163.600,210.204 163.600 C 209.765 163.600,208.400 161.965,208.399 161.439 C 208.399 161.197,207.591 160.460,206.605 159.800 C 205.619 159.140,204.709 158.290,204.582 157.910 C 204.456 157.531,203.778 156.814,203.076 156.316 C 201.139 154.943,200.400 154.260,200.400 153.845 C 200.400 153.638,199.545 152.618,198.500 151.579 C 197.455 150.540,196.154 149.220,195.608 148.645 C 195.063 148.070,194.480 147.600,194.313 147.600 C 193.796 147.600,192.400 146.249,192.400 145.748 C 192.400 145.488,191.500 144.521,190.400 143.600 C 189.300 142.679,188.400 141.684,188.400 141.390 C 188.400 141.095,188.085 140.753,187.700 140.629 C 186.611 140.279,184.400 138.242,184.399 137.588 C 184.399 137.265,183.499 136.387,182.399 135.637 C 181.300 134.888,180.400 134.035,180.400 133.741 C 180.400 133.448,179.365 132.540,178.100 131.724 C 176.835 130.908,175.403 129.892,174.919 129.468 C 173.973 128.639,169.436 128.166,167.709 128.716 M172.338 130.252 C 173.582 130.610,175.078 131.240,175.662 131.652 C 176.246 132.063,176.890 132.400,177.094 132.400 C 177.298 132.400,179.071 134.011,181.033 135.979 C 182.995 137.948,184.844 139.793,185.142 140.079 C 185.440 140.366,187.279 142.220,189.229 144.200 C 191.178 146.180,192.979 147.980,193.231 148.200 C 193.482 148.420,195.276 150.220,197.218 152.200 C 199.159 154.180,200.944 155.980,201.184 156.200 C 201.425 156.420,202.292 157.302,203.111 158.160 C 203.930 159.017,204.852 159.917,205.160 160.160 C 205.469 160.402,206.408 161.320,207.248 162.200 C 208.087 163.080,208.978 163.980,209.228 164.200 C 209.477 164.420,211.287 166.220,213.250 168.200 C 215.213 170.180,217.014 171.980,217.251 172.200 C 217.489 172.420,219.279 174.220,221.229 176.200 C 223.178 178.180,224.975 179.980,225.221 180.200 C 225.467 180.420,226.328 181.302,227.134 182.160 C 227.940 183.018,228.849 183.918,229.153 184.160 C 230.511 185.241,232.800 187.635,232.800 187.974 C 232.800 188.178,233.145 188.455,233.566 188.589 C 233.987 188.723,234.932 189.630,235.666 190.606 C 236.400 191.582,237.277 192.475,237.616 192.590 C 239.803 193.337,241.780 202.781,240.100 204.460 C 239.825 204.735,239.600 205.292,239.600 205.698 C 239.600 206.566,178.651 267.571,175.962 269.395 C 173.821 270.848,170.608 271.714,169.200 271.218 C 168.650 271.024,167.747 270.767,167.192 270.648 C 162.126 269.557,158.131 259.252,161.246 255.311 C 161.551 254.926,161.980 254.372,162.200 254.080 C 162.694 253.426,211.010 205.090,212.926 203.334 C 214.264 202.107,214.294 202.014,213.900 200.334 C 213.260 197.605,212.825 196.942,210.744 195.526 C 209.672 194.797,208.708 193.930,208.601 193.600 C 208.495 193.270,207.603 192.370,206.619 191.600 C 205.635 190.830,204.823 190.072,204.815 189.916 C 204.807 189.760,204.053 188.950,203.140 188.116 C 202.228 187.282,201.283 186.365,201.040 186.078 C 200.798 185.791,199.983 184.981,199.229 184.278 C 198.475 183.575,197.575 182.689,197.229 182.309 C 196.883 181.928,195.898 180.938,195.040 180.109 C 194.183 179.279,193.283 178.367,193.040 178.081 C 192.798 177.796,191.898 176.896,191.040 176.081 C 190.183 175.267,189.283 174.367,189.040 174.081 C 188.798 173.796,187.898 172.896,187.040 172.081 C 186.183 171.267,185.283 170.349,185.040 170.042 C 184.798 169.735,183.902 168.835,183.050 168.042 C 182.197 167.249,181.297 166.367,181.050 166.081 C 180.802 165.796,179.898 164.896,179.040 164.081 C 178.183 163.267,177.283 162.364,177.040 162.075 C 176.798 161.786,176.069 161.066,175.419 160.475 C 174.160 159.328,172.878 158.016,172.160 157.138 C 171.917 156.842,171.017 155.934,170.160 155.120 C 168.507 153.553,165.932 150.971,165.099 150.045 C 164.825 149.740,163.814 148.689,162.854 147.708 C 157.509 142.251,160.186 133.141,167.950 130.368 C 168.967 130.004,169.862 129.683,169.938 129.653 C 170.015 129.624,171.095 129.893,172.338 130.252 M4.000 340.024 C 4.000 340.257,3.792 340.319,3.538 340.162 C 3.253 339.985,3.185 340.052,3.360 340.336 C 3.517 340.589,4.040 340.987,4.522 341.220 C 5.271 341.582,5.306 341.567,4.765 341.122 C 4.416 340.835,4.206 340.375,4.298 340.100 C 4.391 339.825,4.362 339.600,4.233 339.600 C 4.105 339.600,4.000 339.791,4.000 340.024 M24.220 371.506 C 24.429 371.674,25.140 372.259,25.800 372.805 L 27.000 373.797 25.825 372.499 C 25.179 371.784,24.468 371.200,24.245 371.200 C 23.994 371.200,23.984 371.316,24.220 371.506 M28.220 375.506 C 28.429 375.674,29.140 376.259,29.800 376.805 L 31.000 377.797 29.825 376.499 C 29.179 375.784,28.468 375.200,28.245 375.200 C 27.994 375.200,27.984 375.316,28.220 375.506 " stroke="none" fill="#d4d4dc" fill-rule="evenodd"></path></g></svg>